<?xml version="1.0" encoding="UTF-8" standalone="no"?>
<!-- Created with Inkscape (http://www.inkscape.org/) -->

<svg
   width="300mm"
   height="150mm"
   viewBox="0 0 1133.8582 566.929"
   version="1.1"
   id="svg5"
   inkscape:export-filename="firewall_logo.png"
   inkscape:export-xdpi="300"
   inkscape:export-ydpi="300"
   inkscape:version="1.2.2 (b0a8486541, 2022-12-01)"
   sodipodi:docname="logo-firewall-final.svg"
   xmlns:inkscape="http://www.inkscape.org/namespaces/inkscape"
   xmlns:sodipodi="http://sodipodi.sourceforge.net/DTD/sodipodi-0.dtd"
   xmlns="http://www.w3.org/2000/svg"
   xmlns:svg="http://www.w3.org/2000/svg">
  <sodipodi:namedview
     id="namedview7"
     pagecolor="#ffffff"
     bordercolor="#000000"
     borderopacity="0.25"
     inkscape:showpageshadow="2"
     inkscape:pageopacity="0.0"
     inkscape:pagecheckerboard="0"
     inkscape:deskcolor="#d1d1d1"
     inkscape:document-units="px"
     showgrid="false"
     inkscape:zoom="0.43654023"
     inkscape:cx="400.87943"
     inkscape:cy="295.50541"
     inkscape:window-width="1366"
     inkscape:window-height="699"
     inkscape:window-x="0"
     inkscape:window-y="0"
     inkscape:window-maximized="1"
     inkscape:current-layer="layer1" />
  <defs
     id="defs2" />
  <g
     inkscape:label="Camada 1"
     inkscape:groupmode="layer"
     id="layer1">
    <g
       id="g1996"
       transform="translate(6.003826,-113.38583)">
      <g
         id="g4001"
         transform="matrix(1.7078657,0,0,1.7078657,-2.0927969,-46.602338)">
        <g
           id="g1137"
           transform="matrix(0.89214361,0,0,0.89214361,-10.694382,11.606063)"
           style="fill:#ffffff;fill-opacity:0">
          <path
             style="display:inline;fill:#f1f1f1;fill-opacity:1;stroke:none;stroke-width:6.75186;stroke-dasharray:none;stroke-opacity:1"
             d="m 93.142651,291.55807 c -0.14133,-12.79164 1.89686,-28.84211 1.89686,-37.73512 0,-14.96613 15.740199,-9.80593 15.740199,-9.80593 l 13.93978,-4.17644 52.31903,-0.55027 66.88092,1.36382 12.84124,11.55753 c 6.19633,5.57691 3.15475,7.46409 3.15475,22.43022 0,8.89301 2.20957,26.90164 0.57656,39.5894 l 0.16275,22.84345 -12.04067,1.09096 -12.38987,-0.57048 -1.31197,-33.688 c -1.45031,-37.24041 6.07457,-35.76494 -58.41801,-36.52173 -60.72819,-0.71262 -57.8875,-0.5729 -57.8875,12.95238 v 56.72863 l -12.86813,0.10265 -12.086415,0.50532 z"
             id="path9371"
             transform="matrix(0.65631377,0,0,0.65631377,13.360819,17.576569)"
             sodipodi:nodetypes="ssscccssscccssscccs" />
          <path
             style="color:#000000;display:inline;fill:#000000;fill-opacity:1;-inkscape-stroke:none"
             d="m 91.863281,172.13281 c -10.682081,0 -19.425179,8.15001 -19.49414,18.37305 l -0.337164,49.98244 c 2.536585,-0.0958 -10.68208,0 0,0 H 166.2217 c 10.68207,0 20.46922,0 20.46922,0 l -0.66748,-49.98244 c -0.13651,-10.22236 -8.81011,-18.37305 -19.49219,-18.37305 z m 0,4.48242 h 74.667969 c 8.43307,0 14.85642,6.24096 15.00977,13.89063 l 1.00195,49.98244 c 0,0 6.40841,0 -2.02466,0 H 75.823677 v 0 l 1.027885,-49.98244 c 0.157313,-7.64959 6.578647,-13.89063 15.011719,-13.89063 z"
             id="path2163"
             sodipodi:nodetypes="sscsscsssssscsccss" />
          <path
             id="rect111-6-7"
             style="stroke:#000000;stroke-width:3.47366;stroke-dasharray:none"
             d="m 101.7372,193.06534 h 54.91841 c 5.83537,0 10.53316,3.79137 10.53316,8.50083 v 39.36001 l -10.53316,-0.46634 H 101.7372 l -10.533159,0.46634 v -39.36001 c 0,-4.70946 4.697787,-8.50083 10.533159,-8.50083 z"
             sodipodi:nodetypes="sssccccss" />
          <rect
             style="display:inline;fill:#f1f1f1;fill-opacity:1;stroke:#000000;stroke-width:4.48128;stroke-dasharray:none;stroke-opacity:1"
             id="rect111"
             width="156.93588"
             height="141.20815"
             x="50.72847"
             y="-381.69644"
             ry="18.924389"
             rx="19.848501"
             transform="scale(1,-1)" />
        </g>
        <path
           id="path1139"
           style="fill:#7a92ff;fill-opacity:1;stroke:#000000;stroke-width:3.5;stroke-dasharray:none;stroke-opacity:1"
           d="m 104.56737,256.83676 c -9.242566,0 -16.735148,7.49257 -16.73515,16.73514 0.01609,5.98908 3.231466,11.513 8.431297,14.48473 l -3.276763,30.32591 11.580616,5.12059 11.58286,-5.12059 -3.2774,-30.32591 c 5.19921,-2.97214 8.41392,-8.49598 8.42968,-14.48473 0,-9.24256 -7.49258,-16.73514 -16.73514,-16.73514 z"
           sodipodi:nodetypes="scccccccs" />
      </g>
      <g
         aria-label="Firewall"
         transform="scale(1.0395466,0.96195783)"
         id="text2366"
         style="font-size:153.526px;fill:#000000;fill-opacity:1;stroke:none;stroke-width:12.7938">
        <path
           style="color:#000000;font-size:153.526px;fill:#000000;fill-opacity:1;stroke:none;stroke-width:12.7938;-inkscape-stroke:none"
           d="m 326.40269,510.94397 h 25.06532 V 398.15003 h 91.30938 v -22.20071 h -91.30938 v -94.53206 h 75.91211 c 5.01307,0 7.87767,2.50653 7.87767,7.87767 v 16.82957 h 23.27494 v -25.06532 c 0,-15.39726 -6.08729,-21.84263 -21.48456,-21.84263 H 303.12775 v 22.20071 h 23.27494 z"
           id="path1229" />
        <path
           style="color:#000000;font-size:153.526px;fill:#000000;fill-opacity:1;stroke:none;stroke-width:12.7938;-inkscape-stroke:none"
           d="m 465.56536,362.50364 h 15.87854 v -20.69022 h -15.87854 z m 0.48116,133.76471 c 0,10.34511 4.33052,14.67562 14.67563,14.67562 h 17.08146 v -14.19446 h -10.10453 c -3.36817,0 -5.29284,-1.68408 -5.29284,-5.29284 v -86.85083 c 0,-10.34511 -4.33052,-14.67562 -14.67563,-14.67562 h -17.08146 v 14.19445 h 10.10453 c 3.36817,0 5.29284,1.92468 5.29284,5.29285 z"
           id="path1235" />
        <path
           style="color:#000000;font-size:153.526px;fill:#000000;fill-opacity:1;stroke:none;stroke-width:12.7938;-inkscape-stroke:none"
           d="m 511.51653,510.94397 h 16.35971 v -51.00381 c 0,-7.69869 0.96234,-15.87854 3.36818,-23.57723 5.29285,-17.80322 18.0438,-31.27592 35.12526,-31.27592 3.1276,0 6.0146,0.48117 6.0146,0.48117 v -16.11913 c 0,0 -3.12759,-0.72175 -6.49576,-0.72175 -19.00614,0 -32.47884,13.95387 -38.25286,32.23825 h -0.48117 c 0,0 0.48117,-4.08992 0.48117,-9.14219 v -8.17985 c 0,-9.62336 -4.5711,-13.71329 -14.67562,-13.71329 h -16.84088 v 14.19445 h 10.10452 c 3.36818,0 5.29285,1.92468 5.29285,5.29285 z"
           id="path1241" />
        <path
           style="color:#000000;font-size:153.526px;fill:#000000;fill-opacity:1;stroke:none;stroke-width:12.7938;-inkscape-stroke:none"
           d="m 558.73054,450.55739 c 0,37.29052 27.42657,63.27359 63.27359,63.27359 27.42658,0 44.98921,-17.32205 44.98921,-17.32205 l -7.93927,-12.26978 c 0,0 -14.19446,14.9162 -36.32819,14.9162 -25.02073,0 -46.43271,-17.56263 -46.91388,-48.1168 h 92.86543 c 0,0 0.48116,-5.29284 0.48116,-8.17985 0,-30.073 -17.32204,-55.81549 -50.76322,-55.81549 -32.47884,0 -59.66483,23.81782 -59.66483,63.51418 z m 17.80321,-12.51037 c 4.08993,-24.29899 21.65256,-37.29052 41.62104,-37.29052 17.80321,0 33.20059,12.26978 34.16292,37.29052 z"
           id="path1247" />
        <path
           style="color:#000000;font-size:153.526px;fill:#000000;fill-opacity:1;stroke:none;stroke-width:12.7938;-inkscape-stroke:none"
           d="m 707.83219,510.94397 h 18.28438 l 29.35125,-86.12907 c 2.16526,-6.0146 3.84935,-12.99154 3.84935,-12.99154 h 0.48116 c 0,0 1.68409,6.97694 3.60876,12.99154 l 29.59184,86.12907 h 18.0438 l 34.64409,-101.28586 c 1.44351,-4.33052 4.33051,-5.53344 8.42044,-5.53344 h 3.36818 V 389.93022 H 849.055 c -11.54803,0 -15.39738,2.16525 -19.00614,13.4727 l -25.02073,76.7463 c -1.92468,6.0146 -3.36818,12.99153 -3.36818,12.99153 h -0.48117 c 0,0 -1.92467,-7.21752 -3.84934,-12.99153 l -29.59183,-89.73783 h -16.35972 l -29.59183,89.73783 c -1.92467,5.77401 -3.84934,12.99153 -3.84934,12.99153 h -0.48117 c 0,0 -1.68409,-7.21752 -3.60876,-12.99153 l -24.78015,-76.7463 c -3.60876,-11.30745 -7.45811,-13.4727 -19.00614,-13.4727 h -8.42044 v 14.19445 h 3.12759 c 4.33052,0 6.97694,1.20292 8.42044,5.53344 z"
           id="path1253" />
        <path
           style="color:#000000;font-size:153.526px;fill:#000000;fill-opacity:1;stroke:none;stroke-width:12.7938;-inkscape-stroke:none"
           d="m 848.93427,477.98396 c 0,24.0584 20.93081,35.84702 41.13987,35.84702 30.31358,0 40.41811,-26.22366 40.17752,-26.22366 h 0.48117 c 0,0 -0.24058,3.60876 -0.24058,8.90161 0,9.86394 4.08993,14.43504 14.43504,14.43504 h 16.60029 v -14.19446 h -10.10452 c -3.36818,0 -5.29285,-1.68408 -5.29285,-5.29284 v -57.98075 c 0,-25.98307 -9.14219,-46.43271 -47.39505,-46.43271 -10.58569,0 -39.45577,3.60876 -39.45577,20.44964 v 11.54803 h 15.63796 v -7.69869 c 0,-8.9016 17.56263,-10.58569 23.57723,-10.58569 22.13372,0 31.27592,8.90161 31.27592,34.16293 v 1.4435 h -6.73636 c -20.9308,0 -74.09987,1.4435 -74.09987,41.62103 z m 16.84088,-0.96233 c 0,-27.186 38.01227,-27.66716 57.01841,-27.66716 h 6.97694 v 5.53343 c 0,20.93081 -13.95388,44.98921 -37.04994,44.98921 -18.0438,0 -26.94541,-11.54804 -26.94541,-22.85548 z"
           id="path1259" />
        <path
           style="color:#000000;font-size:153.526px;fill:#000000;fill-opacity:1;stroke:none;stroke-width:12.7938;-inkscape-stroke:none"
           d="m 962.12846,496.26835 c 0,10.34511 4.33051,14.67562 14.67562,14.67562 h 17.08146 v -14.19446 h -10.10452 c -3.36818,0 -5.29285,-1.68408 -5.29285,-5.29284 V 356.48904 c 0,-10.34511 -4.33051,-14.67562 -14.67563,-14.67562 h -17.08146 v 14.19445 h 10.10453 c 3.36817,0 5.29285,1.92468 5.29285,5.29285 z"
           id="path1265" />
        <path
           style="color:#000000;font-size:153.526px;fill:#000000;fill-opacity:1;stroke:none;stroke-width:12.7938;-inkscape-stroke:none"
           d="m 995.93028,496.26835 c 0,10.34511 4.33052,14.67562 14.67562,14.67562 h 17.0815 v -14.19446 h -10.1046 c -3.3681,0 -5.2928,-1.68408 -5.2928,-5.29284 V 356.48904 c 0,-10.34511 -4.3305,-14.67562 -14.67564,-14.67562 H 980.5329 v 14.19445 h 10.10453 c 3.36817,0 5.29285,1.92468 5.29285,5.29285 z"
           id="path1271" />
      </g>
      <g
         aria-label="Sua segurança em primeiro lugar"
         transform="scale(1.0174893,0.98281134)"
         id="text4061"
         style="font-size:39.0217px;font-family:Museo;-inkscape-font-specification:Museo;fill:#ff1818;stroke-width:7.558">
        <path
           d="m 337.15862,557.49831 q -2.53641,0 -4.29238,-1.01456 -1.75598,-1.05359 -2.57544,-2.88761 -0.78043,-1.87304 -0.39021,-4.29239 h 1.91206 q -0.46826,2.84859 1.09261,4.64359 1.59989,1.79499 4.56554,1.79499 2.77054,0 4.76064,-1.56086 2.02913,-1.59989 2.41935,-4.09728 0.35119,-2.26326 -0.58533,-3.94119 -0.93652,-1.71696 -2.92662,-2.34131 l -3.78511,-1.20967 q -2.45837,-0.78043 -3.66804,-2.73152 -1.17065,-1.99011 -0.78043,-4.56554 0.5463,-3.31684 2.84858,-5.18988 2.3413,-1.87305 6.00934,-1.87305 2.26326,0 3.86315,0.97555 1.59989,0.97554 2.3413,2.69249 0.74142,1.71696 0.3512,3.9412 h -1.91206 q 0.42923,-2.65348 -0.93652,-4.25337 -1.36576,-1.63891 -4.01924,-1.63891 -2.57543,0 -4.40945,1.4438 -1.83402,1.4438 -2.22424,3.74609 -0.31217,1.9901 0.58533,3.51195 0.8975,1.52184 2.69249,2.14619 l 3.78511,1.2487 q 2.61445,0.85847 3.86315,3.00467 1.24869,2.10717 0.81945,4.91673 -0.5463,3.51195 -3.04369,5.54108 -2.49739,1.99011 -6.36054,1.99011 z"
           style="-inkscape-font-specification:'JetBrains Mono Thin Italic';fill:#000000"
           id="path304" />
        <path
           d="m 360.33753,557.49831 q -3.47293,0 -5.11184,-2.10717 -1.63892,-2.1462 -1.05359,-5.85326 l 2.18522,-13.89172 h 1.95108 l -2.18521,13.89172 q -0.46827,2.92663 0.74141,4.56554 1.20967,1.63891 3.7851,1.63891 2.61446,0 4.33141,-1.63891 1.75598,-1.63891 2.22424,-4.56554 l 2.18521,-13.89172 h 1.95109 l -2.18522,13.89172 q -0.62434,3.78511 -2.92662,5.89228 -2.30228,2.06815 -5.89228,2.06815 z"
           style="-inkscape-font-specification:'JetBrains Mono Thin Italic';fill:#000000"
           id="path306" />
        <path
           d="m 382.65796,557.49831 q -2.96565,0 -4.44848,-2.14619 -1.48282,-2.18522 -0.93652,-5.61913 l 1.05359,-6.67271 q 0.39022,-2.3413 1.48282,-4.09728 1.13163,-1.75597 2.77054,-2.73152 1.67794,-0.97554 3.62902,-0.97554 1.99011,0 3.27783,1.01456 1.28771,0.97555 1.63891,2.65348 l 0.50728,-3.27782 h 1.95108 l -2.73152,17.36465 q -0.15608,1.05359 0.39022,1.71696 0.54631,0.62435 1.56087,0.62435 h 1.75598 l -0.27316,1.75597 h -1.75597 q -1.71696,0 -2.61446,-1.13163 -0.85847,-1.17065 -0.58532,-2.96565 v 0 q -0.74141,2.02913 -2.53641,3.27783 -1.795,1.20967 -4.1363,1.20967 z m 0.66337,-1.67793 q 2.38032,0 4.01923,-1.63891 1.63891,-1.63892 2.06815,-4.44848 l 1.05359,-6.67271 q 0.42924,-2.80956 -0.66337,-4.44847 -1.09261,-1.67794 -3.47293,-1.67794 -2.3413,0 -3.98022,1.67794 -1.63891,1.63891 -2.06815,4.44847 l -1.05358,6.67271 q -0.42924,2.80956 0.66337,4.44848 1.13163,1.63891 3.43391,1.63891 z"
           style="-inkscape-font-specification:'JetBrains Mono Thin Italic';fill:#000000"
           id="path308" />
        <path
           d="m 429.40599,557.49831 q -2.92663,0 -4.56554,-1.56087 -1.63891,-1.59989 -1.52185,-4.09728 h 1.95109 q 0.039,1.67794 1.20967,2.80957 1.20967,1.0926 3.2388,1.0926 h 2.84858 q 2.06815,0 3.51196,-1.13163 1.48282,-1.17065 1.75597,-2.96564 0.27316,-1.67794 -0.5463,-3.00468 -0.78043,-1.32673 -2.45837,-1.52184 l -4.60456,-0.58533 q -2.49739,-0.31217 -3.90217,-1.75597 -1.40478,-1.44381 -1.01456,-3.70707 0.42924,-2.73152 2.49739,-4.25336 2.06815,-1.56087 5.22891,-1.56087 h 2.10717 q 2.8876,0 4.48749,1.48282 1.63891,1.48283 1.56087,3.78511 h -1.95108 q 0.039,-1.52185 -1.13163,-2.49739 -1.17065,-1.01456 -3.2388,-1.01456 h -2.10718 q -2.18521,0 -3.66804,1.0926 -1.48282,1.09261 -1.795,2.92663 -0.50728,3.19978 3.51196,3.74609 l 4.56554,0.58532 q 2.3413,0.27315 3.55097,1.99011 1.2487,1.71695 0.85848,4.01923 -0.46826,2.96565 -2.41935,4.56554 -1.95108,1.56087 -5.11184,1.56087 z"
           style="-inkscape-font-specification:'JetBrains Mono Thin Italic';fill:#000000"
           id="path310" />
        <path
           d="m 454.06772,557.49831 q -3.59,0 -5.26793,-2.18522 -1.67793,-2.18521 -1.13163,-5.61912 l 1.05359,-6.63369 q 0.58532,-3.70706 2.8876,-5.73619 2.34131,-2.06815 6.00935,-2.06815 2.3413,0 3.86314,0.93652 1.56087,0.93652 2.22424,2.49739 0.70239,1.56087 0.39022,3.43391 -0.3512,2.26326 -1.795,3.47293 -1.4438,1.17065 -3.86315,1.17065 h -8.35064 l -0.46826,2.92663 q -0.46826,2.84858 0.74141,4.4875 1.20967,1.59989 3.98021,1.59989 2.18522,0 3.82413,-1.05359 1.63891,-1.05359 2.26326,-2.88761 h 1.95108 q -0.8975,2.6925 -3.08271,4.17533 -2.18522,1.48282 -5.22891,1.48282 z m -3.70706,-12.4089 h 8.38967 q 2.92662,0 3.39488,-2.96565 0.3512,-2.10717 -0.8975,-3.62902 -1.20967,-1.52184 -3.90217,-1.52184 -2.73151,0 -4.48749,1.63891 -1.75598,1.59989 -2.18522,4.44847 z"
           style="-inkscape-font-specification:'JetBrains Mono Thin Italic';fill:#000000"
           id="path312" />
        <path
           d="m 471.4714,564.132 0.31218,-1.75598 h 5.65814 q 4.68261,0 5.46304,-4.6826 l 0.27315,-1.75598 0.66337,-4.33141 q -0.81945,1.83402 -2.57543,2.88761 -1.75598,1.05359 -4.01923,1.05359 -3.19978,0 -4.79967,-2.10718 -1.59989,-2.14619 -1.05359,-5.65814 l 0.74141,-4.72163 q 0.54631,-3.59 2.77054,-5.69717 2.26326,-2.10717 5.58011,-2.10717 2.26326,0 3.66804,1.05359 1.40478,1.05358 1.67793,2.8876 l 0.5463,-3.55097 h 1.95109 l -3.47293,22.04726 q -1.05359,6.43858 -7.7263,6.43858 z m 6.43859,-10.26271 q 2.65347,0 4.37043,-1.59989 1.71695,-1.63891 2.18521,-4.48749 l 0.74141,-4.72163 q 0.46826,-2.88761 -0.74141,-4.4875 -1.20967,-1.63891 -3.86315,-1.63891 -2.61445,0 -4.33141,1.63891 -1.71695,1.59989 -2.18521,4.4875 l -0.74141,4.72163 q -0.46826,2.84858 0.74141,4.48749 1.20967,1.59989 3.82413,1.59989 z"
           style="-inkscape-font-specification:'JetBrains Mono Thin Italic';fill:#000000"
           id="path314" />
        <path
           d="m 500.81574,557.49831 q -3.47293,0 -5.11184,-2.10717 -1.63891,-2.1462 -1.05359,-5.85326 l 2.18522,-13.89172 h 1.95108 l -2.18521,13.89172 q -0.46826,2.92663 0.74141,4.56554 1.20967,1.63891 3.78511,1.63891 2.61445,0 4.33141,-1.63891 1.75597,-1.63891 2.22423,-4.56554 l 2.18522,-13.89172 h 1.95108 l -2.18521,13.89172 q -0.62435,3.78511 -2.92663,5.89228 -2.30228,2.06815 -5.89228,2.06815 z"
           style="-inkscape-font-specification:'JetBrains Mono Thin Italic';fill:#000000"
           id="path316" />
        <path
           d="m 517.7902,557.10809 3.39489,-21.46193 h 1.95109 l -0.54631,3.39489 q 0.8975,-1.795 2.53641,-2.77055 1.63891,-1.01456 3.78511,-1.01456 3.55097,0 4.95575,1.99011 1.40478,1.9901 0.85848,5.61912 l -0.31217,1.95109 h -1.95109 l 0.31218,-1.95109 q 0.42923,-2.8876 -0.70239,-4.40945 -1.09261,-1.52185 -3.74609,-1.52185 -2.61445,0 -4.25336,1.59989 -1.63892,1.59989 -2.10718,4.52652 l -2.22423,14.04781 z"
           style="-inkscape-font-specification:'JetBrains Mono Thin Italic';fill:#000000"
           id="path318" />
        <path
           d="m 546.54922,557.49831 q -2.96565,0 -4.44848,-2.14619 -1.48282,-2.18522 -0.93652,-5.61913 l 1.05359,-6.67271 q 0.39021,-2.3413 1.48282,-4.09728 1.13163,-1.75597 2.77054,-2.73152 1.67794,-0.97554 3.62902,-0.97554 1.99011,0 3.27782,1.01456 1.28772,0.97555 1.63892,2.65348 l 0.50728,-3.27782 h 1.95108 l -2.73152,17.36465 q -0.15608,1.05359 0.39022,1.71696 0.5463,0.62435 1.56087,0.62435 h 1.75597 l -0.27315,1.75597 h -1.75597 q -1.71696,0 -2.61446,-1.13163 -0.85848,-1.17065 -0.58532,-2.96565 v 0 q -0.74142,2.02913 -2.53641,3.27783 -1.795,1.20967 -4.1363,1.20967 z m 0.66336,-1.67793 q 2.38033,0 4.01924,-1.63891 1.63891,-1.63892 2.06815,-4.44848 l 1.05359,-6.67271 q 0.42923,-2.80956 -0.66337,-4.44847 -1.09261,-1.67794 -3.47293,-1.67794 -2.34131,0 -3.98022,1.67794 -1.63891,1.63891 -2.06815,4.44847 l -1.05358,6.67271 q -0.42924,2.80956 0.66336,4.44848 1.13163,1.63891 3.43391,1.63891 z"
           style="-inkscape-font-specification:'JetBrains Mono Thin Italic';fill:#000000"
           id="path320" />
        <path
           d="m 563.75781,557.10809 3.39488,-21.46193 h 1.95109 l -0.54631,3.55097 q 0.85848,-1.87304 2.57544,-2.8876 1.71695,-1.05359 4.01923,-1.05359 3.16076,0 4.72163,2.02913 1.59989,2.02913 1.05358,5.50206 l -2.26325,14.32096 h -1.95109 l 2.22424,-14.04781 q 0.46826,-2.88761 -0.74141,-4.4875 -1.17066,-1.63891 -3.70707,-1.63891 -2.57543,0 -4.37043,1.63891 -1.75597,1.63892 -2.18521,4.4875 l -2.22424,14.04781 z"
           style="-inkscape-font-specification:'JetBrains Mono Thin Italic';fill:#000000"
           id="path322" />
        <path
           d="m 589.94137,564.71733 0.23413,-1.36576 h 3.12174 q 0.93652,0 1.59989,-0.50729 0.66337,-0.50728 0.74141,-1.13163 0.15609,-0.93652 -1.01456,-1.52184 -1.17066,-0.58533 -3.23881,-0.58533 l 1.28772,-2.38032 q -2.41935,-0.62435 -3.59,-2.61446 -1.13163,-1.9901 -0.66337,-4.91673 l 1.05359,-6.63369 q 0.58533,-3.70706 2.92663,-5.73619 2.3413,-2.06815 6.00934,-2.06815 2.30228,0 3.86315,0.93652 1.59989,0.93652 2.30228,2.61446 0.74141,1.67793 0.39022,3.86314 h -1.95109 q 0.42924,-2.65347 -0.8975,-4.1363 -1.32674,-1.48282 -4.01923,-1.48282 -2.65348,0 -4.44848,1.59989 -1.795,1.56087 -2.22423,4.40945 l -1.05359,6.63369 q -0.42924,2.80956 0.85848,4.40945 1.28771,1.59989 3.94119,1.59989 2.6925,0 4.44847,-1.48282 1.795,-1.52185 2.22424,-4.1363 h 1.95109 q -0.54631,3.55097 -2.88761,5.50206 -2.3413,1.91206 -6.04836,1.91206 -0.3512,0 -0.66337,-0.039 l -0.50729,0.97554 q 0.8975,0.039 1.83402,0.39022 0.93653,0.35119 1.52185,1.05358 0.58533,0.70239 0.39022,1.83402 -0.15609,1.2487 -1.40478,2.10718 -1.20968,0.8975 -2.96565,0.8975 z"
           style="-inkscape-font-specification:'JetBrains Mono Thin Italic';fill:#000000"
           id="path324" />
        <path
           d="m 616.78831,557.49831 q -2.96565,0 -4.44848,-2.14619 -1.48282,-2.18522 -0.93652,-5.61913 l 1.05359,-6.67271 q 0.39021,-2.3413 1.48282,-4.09728 1.13163,-1.75597 2.77054,-2.73152 1.67794,-0.97554 3.62902,-0.97554 1.99011,0 3.27782,1.01456 1.28772,0.97555 1.63892,2.65348 l 0.50728,-3.27782 h 1.95108 l -2.73152,17.36465 q -0.15608,1.05359 0.39022,1.71696 0.5463,0.62435 1.56087,0.62435 h 1.75597 l -0.27315,1.75597 h -1.75597 q -1.71696,0 -2.61446,-1.13163 -0.85848,-1.17065 -0.58532,-2.96565 v 0 q -0.74142,2.02913 -2.53641,3.27783 -1.795,1.20967 -4.1363,1.20967 z m 0.66336,-1.67793 q 2.38033,0 4.01924,-1.63891 1.63891,-1.63892 2.06815,-4.44848 l 1.05359,-6.67271 q 0.42923,-2.80956 -0.66337,-4.44847 -1.09261,-1.67794 -3.47293,-1.67794 -2.34131,0 -3.98022,1.67794 -1.63891,1.63891 -2.06815,4.44847 l -1.05358,6.67271 q -0.42924,2.80956 0.66336,4.44848 1.13163,1.63891 3.43391,1.63891 z"
           style="-inkscape-font-specification:'JetBrains Mono Thin Italic';fill:#000000"
           id="path326" />
        <path
           d="m 664.78504,557.49831 q -3.59,0 -5.26793,-2.18522 -1.67794,-2.18521 -1.13163,-5.61912 l 1.05358,-6.63369 q 0.58533,-3.70706 2.88761,-5.73619 2.3413,-2.06815 6.00934,-2.06815 2.3413,0 3.86315,0.93652 1.56087,0.93652 2.22424,2.49739 0.70239,1.56087 0.39021,3.43391 -0.35119,2.26326 -1.79499,3.47293 -1.44381,1.17065 -3.86315,1.17065 h -8.35065 l -0.46826,2.92663 q -0.46826,2.84858 0.74142,4.4875 1.20967,1.59989 3.98021,1.59989 2.18521,0 3.82413,-1.05359 1.63891,-1.05359 2.26325,-2.88761 h 1.95109 q -0.8975,2.6925 -3.08271,4.17533 -2.18522,1.48282 -5.22891,1.48282 z m -3.70706,-12.4089 h 8.38966 q 2.92663,0 3.39489,-2.96565 0.35119,-2.10717 -0.8975,-3.62902 -1.20967,-1.52184 -3.90217,-1.52184 -2.73152,0 -4.4875,1.63891 -1.75597,1.59989 -2.18521,4.44847 z"
           style="-inkscape-font-specification:'JetBrains Mono Thin Italic';fill:#000000"
           id="path328" />
        <path
           d="m 679.45723,557.10809 3.39489,-21.46193 h 1.71695 l -0.46826,2.92662 h 0.11707 q 0.39022,-1.56086 1.52185,-2.41934 1.13162,-0.8975 2.69249,-0.8975 1.48283,0 2.38033,0.85848 0.93652,0.81945 1.0926,2.26326 0.46826,-1.44381 1.59989,-2.26326 1.13163,-0.85848 2.73152,-0.85848 1.95109,0 2.88761,1.36576 0.93652,1.36576 0.5463,3.66804 l -2.65347,16.81835 h -1.91207 l 2.61446,-16.58422 q 0.27315,-1.67793 -0.3512,-2.65348 -0.62434,-0.97554 -1.9901,-0.97554 -1.36576,0 -2.34131,0.97554 -0.97554,0.97555 -1.24869,2.65348 l -2.61445,16.58422 h -1.87305 l 2.61446,-16.58422 q 0.27315,-1.67793 -0.3512,-2.65348 -0.62435,-0.97554 -1.9901,-0.97554 -1.36576,0 -2.34131,0.97554 -0.97554,0.97555 -1.24869,2.65348 l -2.61446,16.58422 z"
           style="-inkscape-font-specification:'JetBrains Mono Thin Italic';fill:#000000"
           id="path330" />
        <path
           d="m 726.51741,564.132 4.52652,-28.48584 h 1.95108 l -0.50728,3.08271 q 1.83402,-3.47293 6.55565,-3.47293 2.10717,0 3.55097,0.97554 1.44381,0.97555 2.06815,2.73152 0.62435,1.75598 0.23413,4.05826 l -1.05358,6.67271 q -0.58533,3.70706 -2.77054,5.77521 -2.18522,2.02913 -5.58011,2.02913 -2.14619,0 -3.58999,-0.97554 -1.40479,-1.01457 -1.795,-2.6925 l -0.50728,3.27782 -1.13163,7.02391 z m 8.85793,-8.31162 q 2.61445,0 4.33141,-1.59989 1.71695,-1.63891 2.18521,-4.52652 l 1.05359,-6.67271 q 0.42924,-2.88761 -0.78044,-4.4875 -1.17065,-1.59989 -3.7851,-1.59989 -2.61446,0 -4.37043,1.59989 -1.75598,1.59989 -2.18522,4.4875 l -1.05358,6.67271 q -0.46826,2.88761 0.74141,4.52652 1.24869,1.59989 3.86315,1.59989 z"
           style="-inkscape-font-specification:'JetBrains Mono Thin Italic';fill:#000000"
           id="path332" />
        <path
           d="m 751.92057,557.10809 3.39489,-21.46193 h 1.95109 l -0.54631,3.39489 q 0.8975,-1.795 2.53641,-2.77055 1.63891,-1.01456 3.78511,-1.01456 3.55097,0 4.95575,1.99011 1.40479,1.9901 0.85848,5.61912 l -0.31217,1.95109 h -1.95109 l 0.31218,-1.95109 q 0.42924,-2.8876 -0.70239,-4.40945 -1.09261,-1.52185 -3.74609,-1.52185 -2.61445,0 -4.25336,1.59989 -1.63891,1.59989 -2.10717,4.52652 l -2.22424,14.04781 z"
           style="-inkscape-font-specification:'JetBrains Mono Thin Italic';fill:#000000"
           id="path334" />
        <path
           d="m 773.8898,557.10809 0.27315,-1.75597 h 7.84336 l 2.84858,-17.94999 h -6.86782 l 0.27316,-1.75597 h 8.8189 l -3.12174,19.70596 h 7.37511 l -0.27316,1.75597 z m 12.60401,-25.55921 q -1.01457,0 -1.56087,-0.58533 -0.50728,-0.58532 -0.3512,-1.56087 0.15609,-0.97554 0.85848,-1.56086 0.74141,-0.58533 1.75598,-0.58533 1.01456,0 1.52184,0.58533 0.54631,0.58532 0.39022,1.56086 -0.15609,0.97555 -0.8975,1.56087 -0.70239,0.58533 -1.71695,0.58533 z"
           style="-inkscape-font-specification:'JetBrains Mono Thin Italic';fill:#000000"
           id="path336" />
        <path
           d="m 796.52242,557.10809 3.39488,-21.46193 h 1.71696 l -0.46826,2.92662 h 0.11706 q 0.39022,-1.56086 1.52185,-2.41934 1.13163,-0.8975 2.6925,-0.8975 1.48282,0 2.38032,0.85848 0.93652,0.81945 1.09261,2.26326 0.46826,-1.44381 1.59989,-2.26326 1.13163,-0.85848 2.73152,-0.85848 1.95108,0 2.8876,1.36576 0.93653,1.36576 0.54631,3.66804 l -2.65348,16.81835 h -1.91206 l 2.61445,-16.58422 q 0.27316,-1.67793 -0.35119,-2.65348 -0.62435,-0.97554 -1.99011,-0.97554 -1.36576,0 -2.3413,0.97554 -0.97554,0.97555 -1.2487,2.65348 l -2.61445,16.58422 h -1.87304 l 2.61445,-16.58422 q 0.27315,-1.67793 -0.35119,-2.65348 -0.62435,-0.97554 -1.99011,-0.97554 -1.36576,0 -2.3413,0.97554 -0.97554,0.97555 -1.2487,2.65348 l -2.61445,16.58422 z"
           style="-inkscape-font-specification:'JetBrains Mono Thin Italic';fill:#000000"
           id="path338" />
        <path
           d="m 828.6763,557.49831 q -3.58999,0 -5.26793,-2.18522 -1.67793,-2.18521 -1.13163,-5.61912 l 1.05359,-6.63369 q 0.58533,-3.70706 2.88761,-5.73619 2.3413,-2.06815 6.00934,-2.06815 2.3413,0 3.86315,0.93652 1.56086,0.93652 2.22423,2.49739 0.70239,1.56087 0.39022,3.43391 -0.35119,2.26326 -1.795,3.47293 -1.4438,1.17065 -3.86315,1.17065 h -8.35064 l -0.46826,2.92663 q -0.46826,2.84858 0.74141,4.4875 1.20967,1.59989 3.98021,1.59989 2.18522,0 3.82413,-1.05359 1.63891,-1.05359 2.26326,-2.88761 h 1.95109 q -0.8975,2.6925 -3.08272,4.17533 -2.18521,1.48282 -5.22891,1.48282 z m -3.70706,-12.4089 h 8.38967 q 2.92662,0 3.39489,-2.96565 0.35119,-2.10717 -0.8975,-3.62902 -1.20968,-1.52184 -3.90217,-1.52184 -2.73152,0 -4.4875,1.63891 -1.75598,1.59989 -2.18522,4.44847 z"
           style="-inkscape-font-specification:'JetBrains Mono Thin Italic';fill:#000000"
           id="path340" />
        <path
           d="m 844.1289,557.10809 0.27315,-1.75597 h 7.84336 l 2.84859,-17.94999 h -6.86782 l 0.27315,-1.75597 h 8.81891 l -3.12174,19.70596 h 7.3751 l -0.27315,1.75597 z m 12.60401,-25.55921 q -1.01456,0 -1.56087,-0.58533 -0.50728,-0.58532 -0.35119,-1.56087 0.15608,-0.97554 0.85847,-1.56086 0.74142,-0.58533 1.75598,-0.58533 1.01457,0 1.52185,0.58533 0.5463,0.58532 0.39021,1.56086 -0.15608,0.97555 -0.89749,1.56087 -0.7024,0.58533 -1.71696,0.58533 z"
           style="-inkscape-font-specification:'JetBrains Mono Thin Italic';fill:#000000"
           id="path342" />
        <path
           d="m 868.98573,557.10809 3.39489,-21.46193 h 1.95108 l -0.5463,3.39489 q 0.8975,-1.795 2.53641,-2.77055 1.63891,-1.01456 3.7851,-1.01456 3.55098,0 4.95576,1.99011 1.40478,1.9901 0.85848,5.61912 l -0.31218,1.95109 h -1.95108 l 0.31217,-1.95109 q 0.42924,-2.8876 -0.70239,-4.40945 -1.09261,-1.52185 -3.74608,-1.52185 -2.61446,0 -4.25337,1.59989 -1.63891,1.59989 -2.10717,4.52652 l -2.22424,14.04781 z"
           style="-inkscape-font-specification:'JetBrains Mono Thin Italic';fill:#000000"
           id="path344" />
        <path
           d="m 898.87636,557.49831 q -3.43391,0 -5.18989,-2.10717 -1.71696,-2.1462 -1.17065,-5.69717 l 1.05358,-6.63369 q 0.58533,-3.59 2.92663,-5.69717 2.38033,-2.10717 5.9313,-2.10717 3.47293,0 5.18989,2.14619 1.71695,2.10718 1.17065,5.65815 l -1.05359,6.63369 q -0.58532,3.62902 -2.92663,5.73619 -2.3413,2.06815 -5.93129,2.06815 z m 0.27315,-1.71695 q 2.6925,0 4.40945,-1.59989 1.75598,-1.59989 2.22424,-4.4875 l 1.05358,-6.63369 q 0.46826,-2.88761 -0.78043,-4.4875 -1.2487,-1.59988 -3.90217,-1.59988 -2.65348,0 -4.40945,1.59988 -1.75598,1.59989 -2.22424,4.4875 l -1.05359,6.63369 q -0.46826,2.88761 0.74142,4.4875 1.24869,1.59989 3.94119,1.59989 z"
           style="-inkscape-font-specification:'JetBrains Mono Thin Italic';fill:#000000"
           id="path346" />
        <path
           d="m 948.51203,557.10809 q -2.61445,0 -3.82413,-1.36576 -1.20967,-1.36576 -0.81945,-3.90217 l 3.39488,-21.46193 h -7.0239 l 0.31217,-1.75598 h 8.97499 l -3.70706,23.21791 q -0.5463,3.51196 2.96565,3.51196 h 6.63369 l -0.27315,1.75597 z"
           style="-inkscape-font-specification:'JetBrains Mono Thin Italic';fill:#000000"
           id="path348" />
        <path
           d="m 969.07647,557.49831 q -3.47293,0 -5.11184,-2.10717 -1.63891,-2.1462 -1.05359,-5.85326 l 2.18522,-13.89172 h 1.95108 l -2.18521,13.89172 q -0.46826,2.92663 0.74141,4.56554 1.20967,1.63891 3.7851,1.63891 2.61446,0 4.33141,-1.63891 1.75598,-1.63891 2.22424,-4.56554 l 2.18521,-13.89172 h 1.95109 l -2.18522,13.89172 q -0.62434,3.78511 -2.92662,5.89228 -2.30228,2.06815 -5.89228,2.06815 z"
           style="-inkscape-font-specification:'JetBrains Mono Thin Italic';fill:#000000"
           id="path350" />
        <path
           d="m 986.5582,564.132 0.31217,-1.75598 h 5.65815 q 4.6826,0 5.46303,-4.6826 l 0.27316,-1.75598 0.66337,-4.33141 q -0.81946,1.83402 -2.57544,2.88761 -1.75597,1.05359 -4.01923,1.05359 -3.19978,0 -4.79967,-2.10718 -1.59989,-2.14619 -1.05359,-5.65814 l 0.74142,-4.72163 q 0.5463,-3.59 2.77054,-5.69717 2.26325,-2.10717 5.5801,-2.10717 2.26326,0 3.66804,1.05359 1.40475,1.05358 1.67795,2.8876 l 0.5463,-3.55097 h 1.9511 l -3.47296,22.04726 q -1.05359,6.43858 -7.7263,6.43858 z m 6.43858,-10.26271 q 2.65347,0 4.37043,-1.59989 1.71695,-1.63891 2.18521,-4.48749 l 0.74138,-4.72163 q 0.4683,-2.88761 -0.74138,-4.4875 -1.20967,-1.63891 -3.86315,-1.63891 -2.61445,0 -4.3314,1.63891 -1.71696,1.59989 -2.18522,4.4875 l -0.74141,4.72163 q -0.46826,2.84858 0.74141,4.48749 1.20967,1.59989 3.82413,1.59989 z"
           style="-inkscape-font-specification:'JetBrains Mono Thin Italic';fill:#000000"
           id="path352" />
        <path
           d="m 1014.8099,557.49831 q -2.9656,0 -4.4485,-2.14619 -1.4828,-2.18522 -0.9365,-5.61913 l 1.0536,-6.67271 q 0.3902,-2.3413 1.4828,-4.09728 1.1317,-1.75597 2.7706,-2.73152 1.6779,-0.97554 3.629,-0.97554 1.9901,0 3.2778,1.01456 1.2877,0.97555 1.6389,2.65348 l 0.5073,-3.27782 h 1.9511 l -2.7315,17.36465 q -0.1561,1.05359 0.3902,1.71696 0.5463,0.62435 1.5609,0.62435 h 1.7559 l -0.2731,1.75597 h -1.756 q -1.717,0 -2.6145,-1.13163 -0.8584,-1.17065 -0.5853,-2.96565 v 0 q -0.7414,2.02913 -2.5364,3.27783 -1.795,1.20967 -4.1363,1.20967 z m 0.6634,-1.67793 q 2.3803,0 4.0192,-1.63891 1.6389,-1.63892 2.0682,-4.44848 l 1.0536,-6.67271 q 0.4292,-2.80956 -0.6634,-4.44847 -1.0926,-1.67794 -3.4729,-1.67794 -2.3413,0 -3.9803,1.67794 -1.6389,1.63891 -2.0681,4.44847 l -1.0536,6.67271 q -0.4292,2.80956 0.6634,4.44848 1.1316,1.63891 3.4339,1.63891 z"
           style="-inkscape-font-specification:'JetBrains Mono Thin Italic';fill:#000000"
           id="path354" />
        <path
           d="m 1032.877,557.10809 3.3949,-21.46193 h 1.9511 l -0.5463,3.39489 q 0.8975,-1.795 2.5364,-2.77055 1.6389,-1.01456 3.7851,-1.01456 3.551,0 4.9558,1.99011 1.4047,1.9901 0.8584,5.61912 l -0.3121,1.95109 h -1.9511 l 0.3122,-1.95109 q 0.4292,-2.8876 -0.7024,-4.40945 -1.0926,-1.52185 -3.7461,-1.52185 -2.6145,0 -4.2534,1.59989 -1.6389,1.59989 -2.1072,4.52652 l -2.2242,14.04781 z"
           style="-inkscape-font-specification:'JetBrains Mono Thin Italic';fill:#000000"
           id="path356" />
      </g>
    </g>
  </g>
</svg>
