<?xml version="1.0" encoding="UTF-8" standalone="no"?>
<!-- Created with Inkscape (http://www.inkscape.org/) -->

<svg
   width="297mm"
   height="210mm"
   viewBox="0 0 1122.5197 793.7008"
   version="1.1"
   id="svg5"
   inkscape:export-filename="firewall_logo1.png"
   inkscape:export-xdpi="300"
   inkscape:export-ydpi="300"
   inkscape:version="1.2.2 (b0a8486541, 2022-12-01)"
   sodipodi:docname="firewall.svg"
   xmlns:inkscape="http://www.inkscape.org/namespaces/inkscape"
   xmlns:sodipodi="http://sodipodi.sourceforge.net/DTD/sodipodi-0.dtd"
   xmlns="http://www.w3.org/2000/svg"
   xmlns:svg="http://www.w3.org/2000/svg">
  <sodipodi:namedview
     id="namedview7"
     pagecolor="#ffffff"
     bordercolor="#000000"
     borderopacity="0.25"
     inkscape:showpageshadow="2"
     inkscape:pageopacity="0.0"
     inkscape:pagecheckerboard="0"
     inkscape:deskcolor="#d1d1d1"
     inkscape:document-units="px"
     showgrid="false"
     inkscape:zoom="0.32455096"
     inkscape:cx="391.30988"
     inkscape:cy="366.66044"
     inkscape:window-width="1366"
     inkscape:window-height="699"
     inkscape:window-x="0"
     inkscape:window-y="0"
     inkscape:window-maximized="1"
     inkscape:current-layer="layer1" />
  <defs
     id="defs2" />
  <rect
     style="display:none;fill:#c6d2ff;fill-opacity:1;stroke:none;stroke-width:3.099;stroke-dasharray:none;stroke-opacity:1"
     id="rect8348"
     width="1122.5197"
     height="793.70081"
     x="0"
     y="0" />
  <g
     inkscape:label="Camada 1"
     inkscape:groupmode="layer"
     id="layer1">
    <g
       id="g1996"
       transform="translate(0.33455154)">
      <g
         id="g4001"
         transform="matrix(1.7078657,0,0,1.7078657,-2.0927969,-46.602338)">
        <g
           id="g1137"
           transform="matrix(0.89214361,0,0,0.89214361,-10.694382,11.606063)"
           style="fill:#ffffff;fill-opacity:0">
          <path
             style="display:inline;fill:#f1f1f1;fill-opacity:1;stroke:none;stroke-width:6.75186;stroke-dasharray:none;stroke-opacity:1"
             d="m 93.142651,291.55807 c -0.14133,-12.79164 1.89686,-28.84211 1.89686,-37.73512 0,-14.96613 15.740199,-9.80593 15.740199,-9.80593 l 13.93978,-4.17644 52.31903,-0.55027 66.88092,1.36382 12.84124,11.55753 c 6.19633,5.57691 3.15475,7.46409 3.15475,22.43022 0,8.89301 2.20957,26.90164 0.57656,39.5894 l 0.16275,22.84345 -12.04067,1.09096 -12.38987,-0.57048 -1.31197,-33.688 c -1.45031,-37.24041 6.07457,-35.76494 -58.41801,-36.52173 -60.72819,-0.71262 -57.8875,-0.5729 -57.8875,12.95238 v 56.72863 l -12.86813,0.10265 -12.086415,0.50532 z"
             id="path9371"
             transform="matrix(0.65631377,0,0,0.65631377,13.360819,17.576569)"
             sodipodi:nodetypes="ssscccssscccssscccs" />
          <path
             style="color:#000000;display:inline;fill:#000000;fill-opacity:1;-inkscape-stroke:none"
             d="m 91.863281,172.13281 c -10.682081,0 -19.425179,8.15001 -19.49414,18.37305 l -0.337164,49.98244 c 2.536585,-0.0958 -10.68208,0 0,0 H 166.2217 c 10.68207,0 20.46922,0 20.46922,0 l -0.66748,-49.98244 c -0.13651,-10.22236 -8.81011,-18.37305 -19.49219,-18.37305 z m 0,4.48242 h 74.667969 c 8.43307,0 14.85642,6.24096 15.00977,13.89063 l 1.00195,49.98244 c 0,0 6.40841,0 -2.02466,0 H 75.823677 v 0 l 1.027885,-49.98244 c 0.157313,-7.64959 6.578647,-13.89063 15.011719,-13.89063 z"
             id="path2163"
             sodipodi:nodetypes="sscsscsssssscsccss" />
          <path
             id="rect111-6-7"
             style="stroke:#000000;stroke-width:3.47366;stroke-dasharray:none"
             d="m 101.7372,193.06534 h 54.91841 c 5.83537,0 10.53316,3.79137 10.53316,8.50083 v 39.36001 l -10.53316,-0.46634 H 101.7372 l -10.533159,0.46634 v -39.36001 c 0,-4.70946 4.697787,-8.50083 10.533159,-8.50083 z"
             sodipodi:nodetypes="sssccccss" />
          <rect
             style="display:inline;fill:#f1f1f1;fill-opacity:1;stroke:#000000;stroke-width:4.48128;stroke-dasharray:none;stroke-opacity:1"
             id="rect111"
             width="156.93588"
             height="141.20815"
             x="50.72847"
             y="-381.69644"
             ry="18.924389"
             rx="19.848501"
             transform="scale(1,-1)" />
        </g>
        <path
           id="path1139"
           style="fill:#7a92ff;fill-opacity:1;stroke:#000000;stroke-width:3.5;stroke-dasharray:none;stroke-opacity:1"
           d="m 104.56737,256.83676 c -9.242566,0 -16.735148,7.49257 -16.73515,16.73514 0.01609,5.98908 3.231466,11.513 8.431297,14.48473 l -3.276763,30.32591 11.580616,5.12059 11.58286,-5.12059 -3.2774,-30.32591 c 5.19921,-2.97214 8.41392,-8.49598 8.42968,-14.48473 0,-9.24256 -7.49258,-16.73514 -16.73514,-16.73514 z"
           sodipodi:nodetypes="scccccccs" />
      </g>
      <text
         xml:space="preserve"
         style="font-size:153.526px;fill:#ffffff;fill-opacity:0;stroke:#000000;stroke-width:12.7938;stroke-dasharray:none;stroke-opacity:1"
         x="288.08856"
         y="510.94397"
         id="text2366"
         transform="scale(1.0395466,0.96195783)"><tspan
           sodipodi:role="line"
           id="tspan2364"
           x="288.08856"
           y="510.94397"
           style="font-style:normal;font-variant:normal;font-weight:normal;font-stretch:normal;font-size:153.526px;font-family:Museo;-inkscape-font-specification:Museo;fill:#000000;fill-opacity:1;stroke:none;stroke-width:12.7938"><tspan
             style="font-size:358.076px;stroke-width:12.7938"
             id="tspan3248">F</tspan><tspan
             style="font-size:240.584px;stroke-width:12.7938"
             id="tspan3978"
             dx="-22.855877 -13.713526 -28.569836 -21.713083 -20.570286 -25.141459 -25.141459">irewall</tspan></tspan></text>
      <text
         xml:space="preserve"
         style="font-style:normal;font-variant:normal;font-weight:normal;font-stretch:normal;font-size:39.0217px;font-family:Museo;-inkscape-font-specification:Museo;fill:#ff1818;fill-opacity:1;stroke:none;stroke-width:7.558;stroke-dasharray:none;stroke-opacity:1"
         x="327.052"
         y="557.10809"
         id="text4061"
         transform="scale(1.0174893,0.98281134)"><tspan
           sodipodi:role="line"
           x="327.052"
           y="557.10809"
           id="tspan4063"
           style="font-style:italic;font-variant:normal;font-weight:100;font-stretch:normal;font-size:39.0217px;font-family:'JetBrains Mono';-inkscape-font-specification:'JetBrains Mono Thin Italic';fill:#000000;fill-opacity:1;stroke-width:7.558">Sua segurança em primeiro lugar</tspan></text>
    </g>
    <text
       xml:space="preserve"
       style="font-style:normal;font-variant:normal;font-weight:normal;font-stretch:normal;font-size:114.667px;font-family:Museo;-inkscape-font-specification:Museo;fill:#000000;fill-opacity:1;stroke:none;stroke-width:2;stroke-dasharray:none;stroke-opacity:1"
       x="536.50806"
       y="572.14868"
       id="text4005"><tspan
         sodipodi:role="line"
         id="tspan4003"
         x="536.50806"
         y="572.14868"></tspan></text>
  </g>
</svg>
