<?xml version="1.0" encoding="UTF-8" standalone="no"?>
<!-- Created with Inkscape (http://www.inkscape.org/) -->

<svg
   width="512"
   height="512"
   viewBox="0 0 135.46666 135.46667"
   version="1.1"
   id="svg5"
   inkscape:version="1.2.2 (b0a8486541, 2022-12-01)"
   sodipodi:docname="fatecanos.svg"
   xml:space="preserve"
   inkscape:export-filename="fatecanos.png"
   inkscape:export-xdpi="96"
   inkscape:export-ydpi="96"
   xmlns:inkscape="http://www.inkscape.org/namespaces/inkscape"
   xmlns:sodipodi="http://sodipodi.sourceforge.net/DTD/sodipodi-0.dtd"
   xmlns:xlink="http://www.w3.org/1999/xlink"
   xmlns="http://www.w3.org/2000/svg"
   xmlns:svg="http://www.w3.org/2000/svg"><sodipodi:namedview
     id="namedview7"
     pagecolor="#ffffff"
     bordercolor="#000000"
     borderopacity="0.25"
     inkscape:showpageshadow="2"
     inkscape:pageopacity="0"
     inkscape:pagecheckerboard="0"
     inkscape:deskcolor="#d1d1d1"
     inkscape:document-units="mm"
     showgrid="false"
     inkscape:zoom="0.62669661"
     inkscape:cx="48.667887"
     inkscape:cy="288.81599"
     inkscape:window-width="1366"
     inkscape:window-height="699"
     inkscape:window-x="0"
     inkscape:window-y="0"
     inkscape:window-maximized="1"
     inkscape:current-layer="layer4"
     showguides="false"><inkscape:page
       x="0"
       y="0"
       width="135.46666"
       height="135.46667"
       id="page3761"
       inkscape:export-filename="./fatecanos-2.png"
       inkscape:export-xdpi="300"
       inkscape:export-ydpi="300" /><inkscape:page
       x="145.46666"
       y="0"
       width="1058.3333"
       height="1058.3334"
       id="page3763" /><inkscape:page
       x="1213.7999"
       y="0"
       width="814.91663"
       height="802.16022"
       id="page6439" /><inkscape:page
       x="2038.7166"
       y="0"
       width="1763.8888"
       height="1763.8889"
       id="page7277" /></sodipodi:namedview><defs
     id="defs2"><linearGradient
       id="linearGradient1144"
       inkscape:swatch="solid"><stop
         style="stop-color:#ffffff;stop-opacity:1;"
         offset="0"
         id="stop1142" /></linearGradient><filter
       style="color-interpolation-filters:sRGB;"
       inkscape:label="Colorize"
       id="filter5214"
       x="0"
       y="0"
       width="1"
       height="1"><feComposite
         in2="SourceGraphic"
         operator="arithmetic"
         k1="0"
         k2="0"
         result="composite1"
         id="feComposite5200" /><feColorMatrix
         in="composite1"
         values="1"
         type="saturate"
         result="colormatrix1"
         id="feColorMatrix5202" /><feFlood
         flood-opacity="1"
         flood-color="rgb(255,255,255)"
         result="flood1"
         id="feFlood5204" /><feBlend
         in="flood1"
         in2="colormatrix1"
         mode="multiply"
         result="blend1"
         id="feBlend5206" /><feBlend
         in2="blend1"
         mode="screen"
         result="blend2"
         id="feBlend5208" /><feColorMatrix
         in="blend2"
         values="1"
         type="saturate"
         result="colormatrix2"
         id="feColorMatrix5210" /><feComposite
         in="colormatrix2"
         in2="SourceGraphic"
         operator="in"
         k2="1"
         result="fbSourceGraphic"
         id="feComposite5212" /><feColorMatrix
         result="fbSourceGraphicAlpha"
         in="fbSourceGraphic"
         values="0 0 0 -1 0 0 0 0 -1 0 0 0 0 -1 0 0 0 0 1 0"
         id="feColorMatrix5216" /><feComposite
         in2="fbSourceGraphic"
         id="feComposite5218"
         operator="arithmetic"
         k1="0"
         k2="0"
         result="composite1"
         in="fbSourceGraphic" /><feColorMatrix
         id="feColorMatrix5220"
         in="composite1"
         values="1"
         type="saturate"
         result="colormatrix1" /><feFlood
         id="feFlood5222"
         flood-opacity="1"
         flood-color="rgb(255,255,255)"
         result="flood1" /><feBlend
         in2="colormatrix1"
         id="feBlend5224"
         in="flood1"
         mode="multiply"
         result="blend1" /><feBlend
         in2="blend1"
         id="feBlend5226"
         mode="screen"
         result="blend2" /><feColorMatrix
         id="feColorMatrix5228"
         in="blend2"
         values="1"
         type="saturate"
         result="colormatrix2" /><feComposite
         in2="fbSourceGraphic"
         id="feComposite5230"
         in="colormatrix2"
         operator="in"
         k2="1"
         result="composite2" /></filter><filter
       inkscape:collect="always"
       style="color-interpolation-filters:sRGB"
       id="filter2168"
       x="-0.02689372"
       y="-0.028253973"
       width="1.0537874"
       height="1.0563319"><feGaussianBlur
         inkscape:collect="always"
         stdDeviation="0.34712865"
         id="feGaussianBlur2170" /></filter><filter
       inkscape:collect="always"
       style="color-interpolation-filters:sRGB"
       id="filter4141"
       x="-0.010560859"
       y="-0.013893249"
       width="1.0211217"
       height="1.0277865"><feGaussianBlur
         inkscape:collect="always"
         stdDeviation="109.6215"
         id="feGaussianBlur4143" /></filter><clipPath
       clipPathUnits="userSpaceOnUse"
       id="clipPath6691"><path
         d="m 25972.3,10 h -1944.6 c -6962,141.699 -13889.8,1752 -20835.73,2575.5 -21.81,2.6 -43.62,5.2 -65.43,7.8 -18.85,2.2 -37.69,4.5 -56.54,6.7 7313.3,0 14626.7,0 21940,0 7306.7,0 14613.3,0 21920,0 v 0 c -18.8,-2.2 -37.7,-4.5 -56.5,-6.7 -21.9,-2.6 -43.7,-5.2 -65.5,-7.8 C 39862.1,1762 32934.3,151.699 25972.3,10"
         id="path6689" /></clipPath><clipPath
       clipPathUnits="userSpaceOnUse"
       id="clipPath6697"><path
         d="m 3062.4,2268.8 h 43876.8 v 336.004 H 3062.4 Z"
         id="path6695" /></clipPath><clipPath
       clipPathUnits="userSpaceOnUse"
       id="clipPath6709"><path
         d="m 25972.3,10 h -1944.6 c -6962,141.699 -13889.8,1752 -20835.73,2575.5 -21.81,2.6 -43.62,5.2 -65.43,7.8 -18.85,2.2 -37.69,4.5 -56.54,6.7 7313.3,0 14626.7,0 21940,0 7306.7,0 14613.3,0 21920,0 v 0 c -18.8,-2.2 -37.7,-4.5 -56.5,-6.7 -21.9,-2.6 -43.7,-5.2 -65.5,-7.8 C 39862.1,1762 32934.3,151.699 25972.3,10"
         id="path6707" /></clipPath><clipPath
       clipPathUnits="userSpaceOnUse"
       id="clipPath6715"><path
         d="m 5217.6,1947.2 h 39561.6 v 335.996 H 5217.6 Z"
         id="path6713" /></clipPath><clipPath
       clipPathUnits="userSpaceOnUse"
       id="clipPath6727"><path
         d="m 25972.3,10 h -1944.6 c -6962,141.699 -13889.8,1752 -20835.73,2575.5 -21.81,2.6 -43.62,5.2 -65.43,7.8 -18.85,2.2 -37.69,4.5 -56.54,6.7 7313.3,0 14626.7,0 21940,0 7306.7,0 14613.3,0 21920,0 v 0 c -18.8,-2.2 -37.7,-4.5 -56.5,-6.7 -21.9,-2.6 -43.7,-5.2 -65.5,-7.8 C 39862.1,1762 32934.3,151.699 25972.3,10"
         id="path6725" /></clipPath><clipPath
       clipPathUnits="userSpaceOnUse"
       id="clipPath6733"><path
         d="M 7737.6,1620.8 H 42264 v 340.801 H 7737.6 Z"
         id="path6731" /></clipPath><clipPath
       clipPathUnits="userSpaceOnUse"
       id="clipPath6745"><path
         d="m 25972.3,10 h -1944.6 c -6962,141.699 -13889.8,1752 -20835.73,2575.5 -21.81,2.6 -43.62,5.2 -65.43,7.8 -18.85,2.2 -37.69,4.5 -56.54,6.7 7313.3,0 14626.7,0 21940,0 7306.7,0 14613.3,0 21920,0 v 0 c -18.8,-2.2 -37.7,-4.5 -56.5,-6.7 -21.9,-2.6 -43.7,-5.2 -65.5,-7.8 C 39862.1,1762 32934.3,151.699 25972.3,10"
         id="path6743" /></clipPath><clipPath
       clipPathUnits="userSpaceOnUse"
       id="clipPath6751"><path
         d="M 9532.8,1299.2 H 40464 v 336 H 9532.8 Z"
         id="path6749" /></clipPath><clipPath
       clipPathUnits="userSpaceOnUse"
       id="clipPath6763"><path
         d="m 25972.3,10 h -1944.6 c -6962,141.699 -13889.8,1752 -20835.73,2575.5 -21.81,2.6 -43.62,5.2 -65.43,7.8 -18.85,2.2 -37.69,4.5 -56.54,6.7 7313.3,0 14626.7,0 21940,0 7306.7,0 14613.3,0 21920,0 v 0 c -18.8,-2.2 -37.7,-4.5 -56.5,-6.7 -21.9,-2.6 -43.7,-5.2 -65.5,-7.8 C 39862.1,1762 32934.3,151.699 25972.3,10"
         id="path6761" /></clipPath><clipPath
       clipPathUnits="userSpaceOnUse"
       id="clipPath6769"><path
         d="m 11692.8,972.797 h 26616 v 340.801 h -26616 z"
         id="path6767" /></clipPath><clipPath
       clipPathUnits="userSpaceOnUse"
       id="clipPath6781"><path
         d="m 25972.3,10 h -1944.6 c -6962,141.699 -13889.8,1752 -20835.73,2575.5 -21.81,2.6 -43.62,5.2 -65.43,7.8 -18.85,2.2 -37.69,4.5 -56.54,6.7 7313.3,0 14626.7,0 21940,0 7306.7,0 14613.3,0 21920,0 v 0 c -18.8,-2.2 -37.7,-4.5 -56.5,-6.7 -21.9,-2.6 -43.7,-5.2 -65.5,-7.8 C 39862.1,1762 32934.3,151.699 25972.3,10"
         id="path6779" /></clipPath><clipPath
       clipPathUnits="userSpaceOnUse"
       id="clipPath6787"><path
         d="m 13848,651.203 h 22305.6 v 336 H 13848 Z"
         id="path6785" /></clipPath><clipPath
       clipPathUnits="userSpaceOnUse"
       id="clipPath6799"><path
         d="m 25972.3,10 h -1944.6 c -6962,141.699 -13889.8,1752 -20835.73,2575.5 -21.81,2.6 -43.62,5.2 -65.43,7.8 -18.85,2.2 -37.69,4.5 -56.54,6.7 7313.3,0 14626.7,0 21940,0 7306.7,0 14613.3,0 21920,0 v 0 c -18.8,-2.2 -37.7,-4.5 -56.5,-6.7 -21.9,-2.6 -43.7,-5.2 -65.5,-7.8 C 39862.1,1762 32934.3,151.699 25972.3,10"
         id="path6797" /></clipPath><clipPath
       clipPathUnits="userSpaceOnUse"
       id="clipPath6805"><path
         d="M 16003.2,324.801 H 33993.6 V 665.602 H 16003.2 Z"
         id="path6803" /></clipPath><clipPath
       clipPathUnits="userSpaceOnUse"
       id="clipPath6817"><path
         d="m 25972.3,10 h -1944.6 c -6962,141.699 -13889.8,1752 -20835.73,2575.5 -21.81,2.6 -43.62,5.2 -65.43,7.8 -18.85,2.2 -37.69,4.5 -56.54,6.7 7313.3,0 14626.7,0 21940,0 7306.7,0 14613.3,0 21920,0 v 0 c -18.8,-2.2 -37.7,-4.5 -56.5,-6.7 -21.9,-2.6 -43.7,-5.2 -65.5,-7.8 C 39862.1,1762 32934.3,151.699 25972.3,10"
         id="path6815" /></clipPath><clipPath
       clipPathUnits="userSpaceOnUse"
       id="clipPath6823"><path
         d="m 18883.2,3.19922 h 12235.2 v 336 H 18883.2 Z"
         id="path6821" /></clipPath><clipPath
       clipPathUnits="userSpaceOnUse"
       id="clipPath6835"><path
         d="m 25000,0 v 0 c -324.4,0 -648.1,3.39844 -972.3,10 h 1944.6 C 25648.1,3.39844 25324.3,0 25000,0"
         id="path6833" /></clipPath><clipPath
       clipPathUnits="userSpaceOnUse"
       id="clipPath6847"><path
         d="M 46930,47400 H 3070 c 18.85,2.2 37.69,4.5 56.54,6.7 21.81,2.6 43.62,5.2 65.43,7.8 6945.93,823.4 13873.73,2433.8 20835.73,2575.5 h 1944.6 c 6962,-141.7 13889.8,-1752 20835.7,-2575.5 21.8,-2.6 43.6,-5.2 65.5,-7.8 18.8,-2.2 37.7,-4.5 56.5,-6.7"
         id="path6845" /></clipPath><clipPath
       clipPathUnits="userSpaceOnUse"
       id="clipPath6853"><path
         d="M 18883.2,47393.6 H 26088 v 2601.6 h -7204.8 z"
         id="path6851" /></clipPath><clipPath
       clipPathUnits="userSpaceOnUse"
       id="clipPath6865"><path
         d="M 46930,47400 H 3070 c 18.85,2.2 37.69,4.5 56.54,6.7 21.81,2.6 43.62,5.2 65.43,7.8 6945.93,823.4 13873.73,2433.8 20835.73,2575.5 h 1944.6 c 6962,-141.7 13889.8,-1752 20835.7,-2575.5 21.8,-2.6 43.6,-5.2 65.5,-7.8 18.8,-2.2 37.7,-4.5 56.5,-6.7"
         id="path6863" /></clipPath><clipPath
       clipPathUnits="userSpaceOnUse"
       id="clipPath6871"><path
         d="m 26073.6,47393.6 h 5044.8 v 2601.6 h -5044.8 z"
         id="path6869" /></clipPath><clipPath
       clipPathUnits="userSpaceOnUse"
       id="clipPath6883"><path
         d="M 46930,47400 H 3070 c 18.85,2.2 37.69,4.5 56.54,6.7 21.81,2.6 43.62,5.2 65.43,7.8 6945.93,823.4 13873.73,2433.8 20835.73,2575.5 h 1944.6 c 6962,-141.7 13889.8,-1752 20835.7,-2575.5 21.8,-2.6 43.6,-5.2 65.5,-7.8 18.8,-2.2 37.7,-4.5 56.5,-6.7"
         id="path6881" /></clipPath><clipPath
       clipPathUnits="userSpaceOnUse"
       id="clipPath6889"><path
         d="m 16003.2,47393.6 h 2894.4 v 2280 h -2894.4 z"
         id="path6887" /></clipPath><clipPath
       clipPathUnits="userSpaceOnUse"
       id="clipPath6901"><path
         d="M 46930,47400 H 3070 c 18.85,2.2 37.69,4.5 56.54,6.7 21.81,2.6 43.62,5.2 65.43,7.8 6945.93,823.4 13873.73,2433.8 20835.73,2575.5 h 1944.6 c 6962,-141.7 13889.8,-1752 20835.7,-2575.5 21.8,-2.6 43.6,-5.2 65.5,-7.8 18.8,-2.2 37.7,-4.5 56.5,-6.7"
         id="path6899" /></clipPath><clipPath
       clipPathUnits="userSpaceOnUse"
       id="clipPath6907"><path
         d="m 31104,47393.6 h 2889.6 v 2280 H 31104 Z"
         id="path6905" /></clipPath><clipPath
       clipPathUnits="userSpaceOnUse"
       id="clipPath6919"><path
         d="M 46930,47400 H 3070 c 18.85,2.2 37.69,4.5 56.54,6.7 21.81,2.6 43.62,5.2 65.43,7.8 6945.93,823.4 13873.73,2433.8 20835.73,2575.5 h 1944.6 c 6962,-141.7 13889.8,-1752 20835.7,-2575.5 21.8,-2.6 43.6,-5.2 65.5,-7.8 18.8,-2.2 37.7,-4.5 56.5,-6.7"
         id="path6917" /></clipPath><clipPath
       clipPathUnits="userSpaceOnUse"
       id="clipPath6925"><path
         d="m 13848,47393.6 h 2169.6 V 49352 H 13848 Z"
         id="path6923" /></clipPath><clipPath
       clipPathUnits="userSpaceOnUse"
       id="clipPath6937"><path
         d="M 46930,47400 H 3070 c 18.85,2.2 37.69,4.5 56.54,6.7 21.81,2.6 43.62,5.2 65.43,7.8 6945.93,823.4 13873.73,2433.8 20835.73,2575.5 h 1944.6 c 6962,-141.7 13889.8,-1752 20835.7,-2575.5 21.8,-2.6 43.6,-5.2 65.5,-7.8 18.8,-2.2 37.7,-4.5 56.5,-6.7"
         id="path6935" /></clipPath><clipPath
       clipPathUnits="userSpaceOnUse"
       id="clipPath6943"><path
         d="m 33979.2,47393.6 h 2174.4 V 49352 h -2174.4 z"
         id="path6941" /></clipPath><clipPath
       clipPathUnits="userSpaceOnUse"
       id="clipPath6955"><path
         d="M 46930,47400 H 3070 c 18.85,2.2 37.69,4.5 56.54,6.7 21.81,2.6 43.62,5.2 65.43,7.8 6945.93,823.4 13873.73,2433.8 20835.73,2575.5 h 1944.6 c 6962,-141.7 13889.8,-1752 20835.7,-2575.5 21.8,-2.6 43.6,-5.2 65.5,-7.8 18.8,-2.2 37.7,-4.5 56.5,-6.7"
         id="path6953" /></clipPath><clipPath
       clipPathUnits="userSpaceOnUse"
       id="clipPath6961"><path
         d="m 11692.8,47393.6 h 2169.6 v 1632 h -2169.6 z"
         id="path6959" /></clipPath><clipPath
       clipPathUnits="userSpaceOnUse"
       id="clipPath6973"><path
         d="M 46930,47400 H 3070 c 18.85,2.2 37.69,4.5 56.54,6.7 21.81,2.6 43.62,5.2 65.43,7.8 6945.93,823.4 13873.73,2433.8 20835.73,2575.5 h 1944.6 c 6962,-141.7 13889.8,-1752 20835.7,-2575.5 21.8,-2.6 43.6,-5.2 65.5,-7.8 18.8,-2.2 37.7,-4.5 56.5,-6.7"
         id="path6971" /></clipPath><clipPath
       clipPathUnits="userSpaceOnUse"
       id="clipPath6979"><path
         d="m 36139.2,47393.6 h 2169.6 v 1632 h -2169.6 z"
         id="path6977" /></clipPath><clipPath
       clipPathUnits="userSpaceOnUse"
       id="clipPath6991"><path
         d="M 46930,47400 H 3070 c 18.85,2.2 37.69,4.5 56.54,6.7 21.81,2.6 43.62,5.2 65.43,7.8 6945.93,823.4 13873.73,2433.8 20835.73,2575.5 h 1944.6 c 6962,-141.7 13889.8,-1752 20835.7,-2575.5 21.8,-2.6 43.6,-5.2 65.5,-7.8 18.8,-2.2 37.7,-4.5 56.5,-6.7"
         id="path6989" /></clipPath><clipPath
       clipPathUnits="userSpaceOnUse"
       id="clipPath6997"><path
         d="m 9532.8,47393.6 h 2174.4 V 48704 H 9532.8 Z"
         id="path6995" /></clipPath><clipPath
       clipPathUnits="userSpaceOnUse"
       id="clipPath7009"><path
         d="M 46930,47400 H 3070 c 18.85,2.2 37.69,4.5 56.54,6.7 21.81,2.6 43.62,5.2 65.43,7.8 6945.93,823.4 13873.73,2433.8 20835.73,2575.5 h 1944.6 c 6962,-141.7 13889.8,-1752 20835.7,-2575.5 21.8,-2.6 43.6,-5.2 65.5,-7.8 18.8,-2.2 37.7,-4.5 56.5,-6.7"
         id="path7007" /></clipPath><clipPath
       clipPathUnits="userSpaceOnUse"
       id="clipPath7015"><path
         d="M 38294.4,47393.6 H 40464 V 48704 h -2169.6 z"
         id="path7013" /></clipPath><clipPath
       clipPathUnits="userSpaceOnUse"
       id="clipPath7027"><path
         d="M 46930,47400 H 3070 c 18.85,2.2 37.69,4.5 56.54,6.7 21.81,2.6 43.62,5.2 65.43,7.8 6945.93,823.4 13873.73,2433.8 20835.73,2575.5 h 1944.6 c 6962,-141.7 13889.8,-1752 20835.7,-2575.5 21.8,-2.6 43.6,-5.2 65.5,-7.8 18.8,-2.2 37.7,-4.5 56.5,-6.7"
         id="path7025" /></clipPath><clipPath
       clipPathUnits="userSpaceOnUse"
       id="clipPath7033"><path
         d="m 7737.6,47393.6 h 1809.6 v 984 H 7737.6 Z"
         id="path7031" /></clipPath><clipPath
       clipPathUnits="userSpaceOnUse"
       id="clipPath7045"><path
         d="M 46930,47400 H 3070 c 18.85,2.2 37.69,4.5 56.54,6.7 21.81,2.6 43.62,5.2 65.43,7.8 6945.93,823.4 13873.73,2433.8 20835.73,2575.5 h 1944.6 c 6962,-141.7 13889.8,-1752 20835.7,-2575.5 21.8,-2.6 43.6,-5.2 65.5,-7.8 18.8,-2.2 37.7,-4.5 56.5,-6.7"
         id="path7043" /></clipPath><clipPath
       clipPathUnits="userSpaceOnUse"
       id="clipPath7051"><path
         d="M 40449.6,47393.6 H 42264 v 984 h -1814.4 z"
         id="path7049" /></clipPath><clipPath
       clipPathUnits="userSpaceOnUse"
       id="clipPath7063"><path
         d="M 46930,47400 H 3070 c 18.85,2.2 37.69,4.5 56.54,6.7 21.81,2.6 43.62,5.2 65.43,7.8 6945.93,823.4 13873.73,2433.8 20835.73,2575.5 h 1944.6 c 6962,-141.7 13889.8,-1752 20835.7,-2575.5 21.8,-2.6 43.6,-5.2 65.5,-7.8 18.8,-2.2 37.7,-4.5 56.5,-6.7"
         id="path7061" /></clipPath><clipPath
       clipPathUnits="userSpaceOnUse"
       id="clipPath7069"><path
         d="M 5217.6,47393.6 H 7752 v 662.398 H 5217.6 Z"
         id="path7067" /></clipPath><clipPath
       clipPathUnits="userSpaceOnUse"
       id="clipPath7081"><path
         d="M 46930,47400 H 3070 c 18.85,2.2 37.69,4.5 56.54,6.7 21.81,2.6 43.62,5.2 65.43,7.8 6945.93,823.4 13873.73,2433.8 20835.73,2575.5 h 1944.6 c 6962,-141.7 13889.8,-1752 20835.7,-2575.5 21.8,-2.6 43.6,-5.2 65.5,-7.8 18.8,-2.2 37.7,-4.5 56.5,-6.7"
         id="path7079" /></clipPath><clipPath
       clipPathUnits="userSpaceOnUse"
       id="clipPath7087"><path
         d="m 42249.6,47393.6 h 2529.6 v 662.398 h -2529.6 z"
         id="path7085" /></clipPath><clipPath
       clipPathUnits="userSpaceOnUse"
       id="clipPath7099"><path
         d="M 46930,47400 H 3070 c 18.85,2.2 37.69,4.5 56.54,6.7 21.81,2.6 43.62,5.2 65.43,7.8 6945.93,823.4 13873.73,2433.8 20835.73,2575.5 h 1944.6 c 6962,-141.7 13889.8,-1752 20835.7,-2575.5 21.8,-2.6 43.6,-5.2 65.5,-7.8 18.8,-2.2 37.7,-4.5 56.5,-6.7"
         id="path7097" /></clipPath><clipPath
       clipPathUnits="userSpaceOnUse"
       id="clipPath7105"><path
         d="M 3062.4,47393.6 H 5232 v 336 H 3062.4 Z"
         id="path7103" /></clipPath><clipPath
       clipPathUnits="userSpaceOnUse"
       id="clipPath7117"><path
         d="M 46930,47400 H 3070 c 18.85,2.2 37.69,4.5 56.54,6.7 21.81,2.6 43.62,5.2 65.43,7.8 6945.93,823.4 13873.73,2433.8 20835.73,2575.5 h 1944.6 c 6962,-141.7 13889.8,-1752 20835.7,-2575.5 21.8,-2.6 43.6,-5.2 65.5,-7.8 18.8,-2.2 37.7,-4.5 56.5,-6.7"
         id="path7115" /></clipPath><clipPath
       clipPathUnits="userSpaceOnUse"
       id="clipPath7123"><path
         d="m 44764.8,47393.6 h 2174.4 v 336 h -2174.4 z"
         id="path7121" /></clipPath><clipPath
       clipPathUnits="userSpaceOnUse"
       id="clipPath7135"><path
         d="m 25972.3,49990 h -1944.6 c 324.2,6.6 647.9,10 972.3,10 324.3,0 648.1,-3.4 972.3,-10"
         id="path7133" /></clipPath><filter
       inkscape:collect="always"
       style="color-interpolation-filters:sRGB"
       id="filter7788"
       x="-0.011564831"
       y="-0.012469198"
       width="1.0231297"
       height="1.0249384"><feGaussianBlur
         inkscape:collect="always"
         stdDeviation="79.561763"
         id="feGaussianBlur7790" /></filter></defs><g
     inkscape:label="Camada 1"
     inkscape:groupmode="layer"
     id="layer1"><circle
       style="display:inline;fill:#080808;fill-opacity:1;stroke:#ffffff;stroke-width:3.16146;stroke-dasharray:none;stroke-opacity:1"
       id="path111"
       cx="67.73333"
       cy="67.73333"
       r="66.152596"
       inkscape:label="circle-main" /><circle
       style="font-style:normal;font-variant:normal;font-weight:normal;font-stretch:normal;font-size:22.5778px;font-family:'College Slab';-inkscape-font-specification:'College Slab';display:inline;fill:#666666;fill-opacity:1;stroke:#080808;stroke-width:5;stroke-dasharray:none;stroke-opacity:1"
       id="path3712"
       cx="-93.699432"
       cy="19.900331"
       inkscape:label="inner-circle"
       transform="rotate(-123.00942)"
       r="45.149632" /><g
       id="g1845"
       transform="matrix(1.1640827,0,0,1.0432037,-12.813316,4.4312244)"><text
         xml:space="preserve"
         style="font-style:normal;font-variant:normal;font-weight:normal;font-stretch:normal;font-size:22.5778px;font-family:'College Slab';-inkscape-font-specification:'College Slab';fill:#ffffff;stroke-width:3.175"
         id="text1752"
         transform="translate(0,-1.5875)"><textPath
           xlink:href="#path3712"
           id="textPath1757"><tspan
             id="tspan1750"
             style="font-style:normal;font-variant:normal;font-weight:normal;font-stretch:normal;font-family:'Fake Serif';-inkscape-font-specification:'Fake Serif';stroke-width:3.175">Clube dos</tspan></textPath></text></g><circle
       style="font-style:normal;font-variant:normal;font-weight:normal;font-stretch:normal;font-size:22.5778px;font-family:'College Slab';-inkscape-font-specification:'College Slab';display:none;fill:#ff00ff;fill-opacity:1;stroke:none;stroke-width:3.49687;stroke-dasharray:none;stroke-opacity:1"
       id="path3712-9"
       cx="19.90033"
       cy="93.699448"
       inkscape:label="inner-circle"
       transform="matrix(-0.70168627,0.98594,1.0801133,0.64050741,-19.671014,-25.014177)"
       r="47.500004" /><g
       id="g1874"
       transform="matrix(1.288025,0,0,1.1757242,-18.540007,-24.808924)"><text
         xml:space="preserve"
         style="font-style:normal;font-variant:normal;font-weight:normal;font-stretch:normal;font-size:27.7841px;font-family:'Fake Serif';-inkscape-font-specification:'Fake Serif';fill:#ffffff;stroke-width:3.90714"
         id="text1762"
         transform="matrix(0.77638245,0,0,0.85053961,13.873024,37.616282)"><textPath
           xlink:href="#path3712-9"
           id="textPath1881"
           style="stroke-width:3.90714"><tspan
             id="tspan1760"
             style="stroke-width:3.90714">Fatecanos</tspan></textPath></text></g><g
       id="g5279"
       transform="matrix(0.73155487,0,0,0.87500473,26.930178,8.5978198)"
       inkscape:label="hat"
       style="font-style:normal;font-variant:normal;font-weight:normal;font-stretch:normal;font-size:30.3389px;font-family:Comfortaa;-inkscape-font-specification:Comfortaa;text-align:center;text-anchor:middle;display:inline;fill:#f9f9f9;fill-opacity:1;stroke:none;stroke-width:0.631338;stroke-dasharray:none;stroke-opacity:1;opacity:0.5;filter:url(#filter2168)"><g
         id="g5608"
         style="fill:#f9f9f9;fill-opacity:1"
         transform="matrix(1.1978126,0,0,1.1978126,-9.1452274,-13.033421)"><rect
           style="fill:#f9f9f9;fill-opacity:1;stroke:#4d4d4d;stroke-width:0.323665;stroke-dasharray:none;stroke-opacity:1"
           id="rect5435"
           width="2.1763346"
           height="19.676334"
           x="19.193638"
           y="46.076851"
           transform="matrix(0.99209175,0,0,0.99209175,2.5792505,14.939623)" /><path
           sodipodi:type="star"
           style="fill:#f9f9f9;fill-opacity:1;stroke:#4d4d4d;stroke-width:2.83465;stroke-dasharray:none;stroke-opacity:1"
           id="path5602"
           inkscape:flatsided="true"
           sodipodi:sides="3"
           sodipodi:cx="37.292809"
           sodipodi:cy="311.23672"
           sodipodi:r1="18.959913"
           sodipodi:r2="15.650905"
           sodipodi:arg1="0.51107387"
           sodipodi:arg2="1.5582714"
           inkscape:rounded="0.1"
           inkscape:randomized="0"
           d="m 53.83002,320.51029 c -1.606228,2.86433 -31.15949,3.2345 -32.836958,0.4113 -1.677467,-2.8232 12.778586,-28.60216 16.062282,-28.64329 3.283695,-0.0411 18.380904,25.36766 16.774676,28.23199 z"
           transform="matrix(0.17983814,0.0047485,-0.00320329,0.26658874,16.999364,1.7400945)"
           inkscape:transform-center-x="-0.10343732"
           inkscape:transform-center-y="-1.0824789" /><circle
           style="fill:#f9f9f9;fill-opacity:1;stroke:#4d4d4d;stroke-width:0.74407;stroke-dasharray:none;stroke-opacity:1"
           id="path5544"
           cx="22.673983"
           cy="80.142525"
           r="1.9841834" /></g><rect
         style="fill:#f9f9f9;stroke:#4d4d4d;stroke-width:1.11982;stroke-dasharray:none;stroke-opacity:1"
         id="rect4545"
         width="52.870075"
         height="37.232113"
         x="29.340891"
         y="55.305"
         rx="26.435038"
         ry="8.1830616" /><rect
         style="opacity:1;mix-blend-mode:normal;fill:#f9f9f9;stroke:#4d4d4d;stroke-width:1.74998;stroke-dasharray:none;stroke-opacity:1"
         id="rect4543"
         width="48.623379"
         height="49.204586"
         x="96.080276"
         y="37.268936"
         transform="matrix(0.94807882,0.31803547,-0.9433326,0.33184876,0,0)" /></g><g
       id="g2126"
       transform="translate(-0.99394179,2.250095)"
       style="display:inline"><text
         xml:space="preserve"
         style="font-style:normal;font-variant:normal;font-weight:normal;font-stretch:normal;font-size:61.8942px;font-family:'College Slab';-inkscape-font-specification:'College Slab';fill:#080808;stroke:#000000;stroke-width:1.71336;stroke-dasharray:none;stroke-opacity:1;fill-opacity:1"
         x="39.033649"
         y="80.742867"
         id="text1989"><tspan
           sodipodi:role="line"
           id="tspan1987"
           style="fill:#080808;stroke:#ffffff;stroke-width:1.71336;stroke-dasharray:none;stroke-opacity:1;fill-opacity:1"
           x="39.033649"
           y="80.742867">Z</tspan></text><text
         xml:space="preserve"
         style="font-style:normal;font-variant:normal;font-weight:normal;font-stretch:normal;font-size:61.8942px;font-family:'College Slab';-inkscape-font-specification:'College Slab';fill:#080808;stroke:#000000;stroke-width:1.71336;stroke-dasharray:none;stroke-opacity:1;fill-opacity:1"
         x="62.577873"
         y="92.50386"
         id="text1989-7"><tspan
           sodipodi:role="line"
           id="tspan1987-6"
           style="fill:#080808;stroke:#ffffff;stroke-width:1.71336;stroke-dasharray:none;stroke-opacity:1;fill-opacity:1"
           x="62.577873"
           y="92.50386">L</tspan></text></g></g><g
     inkscape:groupmode="layer"
     id="layer2"
     inkscape:label="Camada 2"
     transform="matrix(0.01834535,0,0,0.01834535,2.0733855,63.571362)"
     style="fill:#ffffff;fill-opacity:1"><g
       id="g3749"
       transform="matrix(0.03527778,0,0,-0.03527778,145.46666,756.0353)"
       style="opacity:0.75;mix-blend-mode:normal;fill:#ffffff;fill-opacity:1;filter:url(#filter4141)"><path
         d="m 12008.2,14592.7 c 0,454.1 -368.1,822.2 -822.2,822.2 -454.1,0 -822.2,-368.1 -822.2,-822.2 0,-454.1 368.1,-822.2 822.2,-822.2 454.1,0 822.2,368.1 822.2,822.2"
         style="fill:#ffffff;fill-opacity:1;fill-rule:nonzero;stroke:none"
         id="path3753" /><path
         d="m 18814,15414.9 c -454.1,0 -822.2,-368.1 -822.2,-822.2 0,-454.1 368.1,-822.2 822.2,-822.2 454.1,0 822.2,368.1 822.2,822.2 0,454.1 -368.1,822.2 -822.2,822.2"
         style="fill:#ffffff;fill-opacity:1;fill-rule:nonzero;stroke:none"
         id="path3755" /><path
         d="m 17997.2,11275.3 c -154.4,0 -279.6,-125.2 -279.6,-279.6 0,-558.1 -546.8,-1012.2 -1219,-1012.2 -598.3,0 -1097.3,359.7 -1199.8,832.3 57.9,41.1 108.7,95.6 148,163.5 l 484.3,838.8 c 198.5,344 -49.7,773.8 -446.8,773.8 h -968.6 c -397.1,0 -645.3,-429.8 -446.8,-773.8 l 484.3,-838.8 c 39.3,-67.9 90.1,-122.4 148,-163.5 -102.5,-472.6 -601.5,-832.3 -1199.8,-832.3 -672.2,0 -1219,454.1 -1219,1012.2 0,154.4 -125.2,279.6 -279.6,279.6 -154.3,0 -279.5,-125.2 -279.5,-279.6 0,-217.4 49.2,-428 146.4,-625.9 92.1,-187.9 223.2,-355.8 389.6,-499.2 333.7,-287.7 774.9,-446.2 1242.1,-446.2 467.3,0 908.4,158.5 1242.2,446.2 98,84.5 183.6,177.5 256.4,278.1 72.8,-100.6 158.4,-193.6 256.4,-278.1 333.8,-287.7 774.9,-446.2 1242.2,-446.2 467.2,0 908.4,158.5 1242.1,446.2 166.4,143.4 297.5,311.3 389.6,499.2 97.2,197.9 146.4,408.5 146.4,625.9 0,154.4 -125.2,279.6 -279.5,279.6"
         style="fill:#ffffff;fill-opacity:1;fill-rule:nonzero;stroke:none"
         id="path3757" /><path
         d="m 23807.6,11486.6 -1611.9,255.4 c -152.5,24.1 -295.7,-79.9 -319.8,-232.4 -24.2,-152.5 79.8,-295.6 232.3,-319.8 l 1501.8,-237.9 c -115.9,-272.9 -253,-539.8 -410.7,-799.4 l -1390,351.1 c -149.6,37.8 -301.6,-52.8 -339.4,-202.5 -37.9,-149.7 52.8,-301.7 202.5,-339.5 l 1196.3,-302.2 c -388.6,-527.9 -867,-1019.9 -1428.9,-1464 C 19722.5,6838.2 17435.5,6090.7 15000,6090.7 c -2435.5,0 -4722.5,747.5 -6439.76,2104.7 -561.99,444.1 -1040.37,936.1 -1428.98,1464 l 1196.33,302.2 c 149.68,37.8 240.36,189.8 202.55,339.5 -37.81,149.7 -189.8,240.4 -339.48,202.5 l -1389.98,-351.1 c -157.67,259.6 -294.8,526.5 -410.73,799.4 l 1501.82,237.9 c 152.48,24.2 256.51,167.3 232.35,319.8 -24.15,152.5 -167.35,256.6 -319.82,232.4 l -1611.92,-255.4 c -73.74,233.8 -132.43,471.2 -175.63,711.4 l 1307.75,115.5 c 153.78,13.6 267.44,149.2 253.86,303 -13.57,153.8 -149.25,267.5 -303.03,253.9 l -1330.3,-117.5 c -11.83,149.1 -17.81,299 -17.81,449.6 0,929.8 225.91,1834 671.45,2687.5 20.84,40 31.72,84.4 31.72,129.4 v 7685.3 c 0,106 71.1,158.5 101.67,176.1 18.57,10.8 55.77,28 102.69,28 30.29,0 64.64,-7.2 100.64,-28 l 6304.01,-3639.6 c 53.8,-31.1 116.5,-43.3 178,-34.8 519,71.7 1051.5,108 1582.6,108 531.1,0 1063.6,-36.3 1582.6,-108 61.5,-8.5 124.2,3.7 178,34.8 l 6304,3639.6 c 91.8,53 172.8,17.7 203.3,0 30.6,-17.6 101.7,-70.1 101.7,-176.1 v -7685.3 c 0,-45 10.9,-89.4 31.7,-129.4 445.6,-853.5 671.5,-1757.7 671.5,-2687.5 0,-150.6 -6,-300.5 -17.8,-449.6 l -1330.3,117.5 c -153.8,13.5 -289.5,-100.1 -303.1,-253.9 -13.5,-153.8 100.1,-289.4 253.9,-303 l 1307.8,-115.5 c -43.3,-240.2 -101.9,-477.6 -175.7,-711.4 z m 3393.4,988.6 -2589.3,228.6 c 13.4,165.9 20.1,332.3 20.1,498.7 0,513.4 -63.9,1026.6 -190.1,1525.5 -117.4,463.9 -289.9,920.8 -513,1359.2 v 7617.5 c 0,275.7 -142.5,522.5 -381.2,660.3 -238.7,137.8 -523.7,137.8 -762.4,0 l -6221.6,-3592 c -513.9,66.7 -1039.4,100.4 -1563.5,100.4 -524.1,0 -1049.6,-33.7 -1563.5,-100.4 l -6221.57,3592 c -238.7,137.8 -523.71,137.8 -762.4,0 -238.7,-137.8 -381.2,-384.6 -381.2,-660.3 v -7617.5 c -223.17,-438.4 -395.64,-895.3 -512.99,-1359.2 -126.2,-498.9 -190.19,-1012.1 -190.19,-1525.5 0,-166.4 6.75,-332.8 20.14,-498.7 l -2589.28,-228.6 c -153.79,-13.6 -267.45,-149.3 -253.87,-303.1 12.84,-145.4 134.85,-254.9 278.13,-254.9 8.23,0 16.55,0.3 24.91,1.1 l 2610.15,230.4 c 29.22,-169.9 65.46,-338.7 108.75,-505.8 21.16,-81.8 44.07,-163.3 68.63,-244.5 l -2444.76,-387.3 c -152.48,-24.1 -256.51,-167.3 -232.36,-319.8 21.81,-137.7 140.64,-235.8 275.75,-235.8 14.53,0 29.27,1.1 44.08,3.5 l 2545.63,403.2 c 90.96,-226.8 195.19,-450.1 312.13,-668.6 32.87,-61.4 66.81,-122.5 101.75,-183.3 L 3851.37,9407.4 c -149.68,-37.8 -240.36,-189.8 -202.55,-339.5 32.01,-126.7 145.83,-211.1 270.81,-211.1 22.66,0 45.7,2.7 68.67,8.6 L 6551.81,9513 c 147.64,-214.2 308.17,-422.9 480.63,-624.7 346.33,-405.1 743.73,-785.8 1181.15,-1131.6 436.22,-344.7 915.93,-657.5 1425.78,-929.8 513.73,-274.3 1062.73,-509.8 1631.63,-700 1181.7,-395 2436.3,-595.2 3729,-595.2 1292.7,0 2547.3,200.2 3729,595.2 568.9,190.2 1117.9,425.7 1631.6,700 509.9,272.3 989.6,585.1 1425.8,929.8 437.4,345.8 834.8,726.5 1181.2,1131.6 172.4,201.8 332.9,410.5 480.6,624.7 l 2563.5,-647.6 c 23,-5.9 46,-8.6 68.7,-8.6 124.9,0 238.8,84.4 270.8,211.1 37.8,149.7 -52.9,301.7 -202.6,339.5 l -2386.5,602.9 c 34.9,60.8 68.9,121.9 101.7,183.3 117,218.5 221.2,441.8 312.2,668.6 l 2545.6,-403.2 c 14.8,-2.4 29.5,-3.5 44.1,-3.5 135.1,0 253.9,98.2 275.7,235.8 24.2,152.5 -79.9,295.7 -232.3,319.8 l -2444.8,387.3 c 24.5,81.2 47.5,162.7 68.6,244.5 43.3,167.1 79.5,335.9 108.8,505.8 l 2610.1,-230.4 c 8.4,-0.8 16.7,-1.1 24.9,-1.1 143.3,0 265.3,109.5 278.2,254.9 13.5,153.8 -100.1,289.5 -253.9,303.1"
         style="fill:#ffffff;fill-opacity:1;fill-rule:nonzero;stroke:none"
         id="path3759" /></g></g><g
     inkscape:groupmode="layer"
     id="layer4"
     inkscape:label="Camada 3"
     transform="matrix(0.02590146,0,0,0.02590146,44.992079,48.509855)"><g
       id="g6679"
       transform="matrix(0.03527778,0,0,-0.03527778,2059.1466,1763.8889)"
       style="opacity:0.5;filter:url(#filter7788)"><path
         d="m 18444.7,30766.5 c 1908.2,-1198.8 1446.1,-4526.1 -55.6,-6181.7 -1416.4,800.1 -2024,2210.4 -1726.9,3563.5 235,1071.1 1041.5,1860.3 1782.5,2618.2"
         style="fill:#ffffff;fill-opacity:1;fill-rule:evenodd;stroke:none"
         id="path7141" /><path
         d="m 31243.4,30766.5 c -1907.9,-1198.8 -1446.1,-4526.1 55.6,-6181.7 1416.8,800.1 2024,2210.4 1727.2,3563.5 -235,1071.1 -1041.8,1860.3 -1782.8,2618.2"
         style="fill:#ffffff;fill-opacity:1;fill-rule:evenodd;stroke:none"
         id="path7143" /><path
         d="m 19065.3,33766.7 c -414.7,357.8 -1217.4,1157 -848.1,1433.6 184.3,137.8 314.8,-6.3 319.6,-9.4 334.9,-240 967.9,-397.8 1415.8,-460.9 1341.2,1217.8 3076.3,1888.7 4891.5,1888.7 1815.1,0 3550.6,-670.9 4891.7,-1888.7 447.6,63.1 1080.6,220.9 1415.9,460.9 4.4,3.1 134.9,147.2 319.5,9.4 369,-276.6 -433.7,-1075.8 -848.2,-1433.6 975.3,-1270.1 1501.4,-2821 1501.4,-4428.3 0,-1936.7 -763.3,-3778.7 -2132.5,-5147.8 -1369.5,-1369.6 -3211.2,-2132.5 -5147.8,-2132.5 -1936.7,0 -3778,763.2 -5147.9,2132.5 -1369.1,1369.1 -2132.1,3211.1 -2132.1,5147.8 0,1607.3 525.7,3158.2 1501.2,4428.3"
         style="fill:#ffffff;fill-opacity:1;fill-rule:evenodd;stroke:none"
         id="path7147" /><path
         d="m 29480.9,33463.3 c -957.2,134.4 -2045.7,114.8 -2869.5,-446.9 -849.5,-579.5 -1205.5,-1595.4 -1355.1,-2570.3 l -36.6,-239.4 h -751 l -36.9,239.4 c -149.2,974.9 -505.6,1990.8 -1354.7,2570.3 -823.9,561.7 -1912.6,581.3 -2869.6,446.9 -1014.1,-1139 -1569.4,-2597.4 -1569.4,-4124.9 0,-1651.8 650,-3220.7 1817.7,-4388.4 1167.9,-1167.6 2736.5,-1817.9 4388.3,-1817.9 1651.8,0 3220.7,650.3 4388.2,1817.9 1167.7,1167.7 1818.1,2736.6 1818.1,4388.4 0,1527.5 -555.7,2985.9 -1569.5,4124.9"
         style="fill:#080808;fill-opacity:1;fill-rule:evenodd;stroke:none"
         id="path7149" /><path
         d="m 21203.3,34364.8 c 826.6,-9.5 1647,-184.8 2343.1,-659.8 604.1,-412 1018.8,-982.2 1297.7,-1631.4 279.1,649.2 693.8,1219.4 1297.6,1631.4 696.4,475 1516.8,650.3 2343.1,659.8 -1054.4,765.4 -2322,1179.9 -3640.7,1179.9 -1318.8,0 -2586.1,-414.5 -3640.8,-1179.9"
         style="fill:#080808;fill-opacity:1;fill-rule:evenodd;stroke:none"
         id="path7151" /><path
         d="m 20314.8,21993.3 c 141.9,128.7 304,232.8 486.6,312.3 -26.5,-90.9 -43.9,-184.6 -52.3,-280.7 -107.3,-1206.2 36.6,-515.1 526.7,-200.9 196.5,126.1 462,230.8 796.4,314.2 -47,-96.9 -79.4,-196.5 -97.1,-298.8 -161.8,-927 142.3,-438.4 475.3,-89.9 346.6,362.8 732.4,600 1156.3,711.3 698.6,182.9 600.2,658.9 -96.2,706.5 -333.7,23.1 -685.4,26.2 -1054.4,10.5 -892.3,-39.2 -1872.6,-10.1 -2314.9,-723.9 -435.2,-702.5 -575.3,-1140.9 173.6,-460.6 z m 9058.9,0 c -141.9,128.7 -304,232.8 -486.6,312.3 26.1,-90.9 43.8,-184.6 52.3,-280.7 107.2,-1206.2 -36.6,-515.1 -526.8,-200.9 -196.8,126.1 -462.3,230.8 -796.3,314.2 46.9,-96.9 79.1,-196.5 97.1,-298.8 161.4,-927 -142.6,-438.4 -475.4,-89.9 -346.6,362.8 -732.3,600 -1156.6,711.3 -698.4,182.9 -599.9,658.9 96.6,706.5 333.3,23.1 685.3,26.2 1054.4,10.5 891.9,-39.2 1872.5,-10.1 2314.7,-723.9 435.3,-702.5 575.4,-1140.9 -173.4,-460.6"
         style="fill:#f9f9f9;fill-opacity:1;fill-rule:evenodd;stroke:none"
         id="path7153" /><path
         d="m 25504.9,28971.5 c -474.1,654.8 -914.1,628.7 -1321.3,18.4 191.8,-570.1 470.8,-798.4 663.6,-1010 190.8,209.4 465.9,429.6 657.7,991.6"
         style="fill:#ffffff;fill-opacity:1;fill-rule:evenodd;stroke:none"
         id="path7159" /><path
         d="m 25974.5,31431.5 c 112.6,194.8 259.9,357.6 429.2,484.7 -12.5,-219.8 96.3,-438.8 300,-556.4 288,-166.2 656.1,-67.5 822.3,220.6 123.1,212.8 100.9,470.2 -35.6,656.6 237.8,-16.4 475.4,-85.8 695.8,-212.9 774,-447.3 1039.6,-1437.4 592.3,-2211.7 -446.9,-774 -1437.3,-1039.6 -2211.3,-592.6 -774.3,446.9 -1039.6,1437.2 -592.7,2211.7"
         style="fill:#ffffff;fill-opacity:1;fill-rule:evenodd;stroke:none"
         id="path7169" /><path
         d="m 20909.6,31431.5 c 112.6,194.8 259.6,357.6 429,484.7 -12.7,-219.8 96.5,-438.8 300.2,-556.4 287.7,-166.2 656.1,-67.5 822.3,220.6 123.1,212.8 100.9,470.2 -35.6,656.6 237.8,-16.4 475.3,-85.8 695.4,-212.9 774.3,-447.3 1039.6,-1437.4 592.8,-2211.7 -447,-774 -1437.4,-1039.6 -2211.4,-592.6 -774.4,446.9 -1039.6,1437.2 -592.7,2211.7"
         style="fill:#ffffff;fill-opacity:1;fill-rule:evenodd;stroke:none"
         id="path7171" /></g></g></svg>
